<svg viewBox="0 0 300 310" fill="none" xmlns="http://www.w3.org/2000/svg">
    <path d="M185.447 237.867L187.18 205.667L141.447 203.427L112.807 205.093C112.807 205.093 118.14 236.813 121.153 239.24C124.167 241.667 185.447 237.867 185.447 237.867Z" fill="#231F20"/>
    <path d="M132.66 240.707C126.193 240.707 121.567 240.453 120.66 239.76C117.567 237.24 112.66 208.467 112.073 205.2C112.055 205.107 112.058 205.011 112.081 204.919C112.104 204.827 112.147 204.741 112.207 204.667C112.264 204.594 112.337 204.534 112.42 204.493C112.503 204.451 112.594 204.429 112.687 204.427L141.407 202.72L187.22 204.96C187.306 204.962 187.391 204.982 187.469 205.018C187.547 205.055 187.617 205.108 187.673 205.173C187.734 205.24 187.78 205.318 187.81 205.402C187.84 205.487 187.852 205.577 187.847 205.667L186.113 237.867C186.101 238.029 186.031 238.181 185.916 238.296C185.801 238.411 185.649 238.481 185.487 238.493C178.087 239 149.327 240.707 132.66 240.707ZM113.553 205.707C115.647 217.933 119.553 237.107 121.553 238.72C123.847 240.347 161.287 238.72 184.78 237.24L186.46 206.293L141.407 204.053L113.553 205.707Z" fill="#231F20"/>
    <path d="M83.3264 271.693C82.7503 271.695 82.1891 271.509 81.727 271.165C81.2649 270.821 80.9268 270.336 80.7631 269.784C80.5995 269.232 80.6192 268.641 80.8193 268.101C81.0194 267.56 81.3891 267.099 81.8731 266.787C87.8331 262.893 94.6865 257.68 95.9398 255.733C95.1931 252.76 87.8464 241.533 81.1798 232.427C80.9723 232.144 80.8225 231.823 80.739 231.482C80.6556 231.142 80.64 230.788 80.6932 230.441C80.7465 230.095 80.8675 229.762 81.0493 229.462C81.2312 229.162 81.4703 228.901 81.7531 228.693C82.0359 228.486 82.3568 228.336 82.6974 228.253C83.0381 228.169 83.3918 228.154 83.7385 228.207C84.0852 228.26 84.418 228.381 84.7179 228.563C85.0178 228.745 85.2789 228.984 85.4864 229.267C102.353 252.32 101.486 255.76 101.206 256.893C100.26 260.693 90.5398 267.56 84.7798 271.253C84.3482 271.538 83.8433 271.691 83.3264 271.693Z" fill="#231F20"/>
    <path d="M73.9666 266.387C73.9666 270.208 77.0618 273.307 80.8799 273.307C84.698 273.307 87.7932 270.208 87.7932 266.387V227.227C87.7932 223.405 84.698 220.307 80.8799 220.307C77.0618 220.307 73.9666 223.405 73.9666 227.227V266.387Z" fill="#231F20"/>
    <path d="M80.8732 273.973C78.8634 273.97 76.9371 273.169 75.5173 271.747C74.0974 270.324 73.2999 268.396 73.2999 266.387V227.227C73.257 226.204 73.4213 225.184 73.7829 224.227C74.1445 223.27 74.6959 222.396 75.404 221.658C76.1121 220.919 76.9623 220.332 77.9033 219.93C78.8443 219.529 79.8568 219.322 80.8799 219.322C81.903 219.322 82.9155 219.529 83.8565 219.93C84.7975 220.332 85.6477 220.919 86.3558 221.658C87.0639 222.396 87.6153 223.27 87.9769 224.227C88.3385 225.184 88.5028 226.204 88.4599 227.227V266.387C88.4599 268.399 87.6606 270.328 86.2378 271.751C84.8151 273.174 82.8854 273.973 80.8732 273.973ZM80.8732 220.973C79.2171 220.977 77.6299 221.637 76.4601 222.81C75.2902 223.982 74.6332 225.57 74.6332 227.227V266.387C74.5942 267.231 74.7269 268.075 75.0232 268.867C75.3195 269.659 75.7733 270.382 76.3572 270.994C76.9411 271.605 77.643 272.092 78.4203 272.425C79.1977 272.757 80.0344 272.929 80.8799 272.929C81.7254 272.929 82.5621 272.757 83.3395 272.425C84.1169 272.092 84.8187 271.605 85.4026 270.994C85.9865 270.382 86.4403 269.659 86.7366 268.867C87.033 268.075 87.1656 267.231 87.1266 266.387V227.227C87.1266 225.568 86.4678 223.978 85.295 222.805C84.1223 221.632 82.5317 220.973 80.8732 220.973Z" fill="#231F20"/>
    <path d="M216.66 271.693C216.143 271.691 215.638 271.538 215.207 271.253C209.473 267.52 199.727 260.693 198.78 256.893C198.487 255.76 197.633 252.32 214.5 229.267C214.919 228.696 215.548 228.314 216.248 228.207C216.948 228.099 217.662 228.274 218.233 228.693C218.804 229.112 219.186 229.741 219.293 230.441C219.401 231.141 219.226 231.856 218.806 232.427C212.14 241.573 204.74 252.853 204.033 255.76C205.153 257.56 212.033 262.853 218.113 266.787C218.597 267.099 218.967 267.56 219.167 268.101C219.367 268.641 219.387 269.232 219.223 269.784C219.06 270.336 218.721 270.821 218.259 271.165C217.797 271.509 217.236 271.695 216.66 271.693Z" fill="#231F20"/>
    <path d="M226.02 227.227C226.02 223.405 222.925 220.307 219.107 220.307C215.289 220.307 212.193 223.405 212.193 227.227V266.387C212.193 270.208 215.289 273.307 219.107 273.307C222.925 273.307 226.02 270.208 226.02 266.387V227.227Z" fill="#231F20"/>
    <path d="M219.113 273.973C217.101 273.973 215.171 273.174 213.749 271.751C212.326 270.328 211.526 268.399 211.526 266.387V227.227C211.484 226.204 211.648 225.184 212.009 224.227C212.371 223.27 212.922 222.396 213.631 221.658C214.339 220.919 215.189 220.332 216.13 219.93C217.071 219.529 218.083 219.322 219.106 219.322C220.13 219.322 221.142 219.529 222.083 219.93C223.024 220.332 223.874 220.919 224.582 221.658C225.29 222.396 225.842 223.27 226.203 224.227C226.565 225.184 226.729 226.204 226.686 227.227V266.387C226.686 268.396 225.889 270.324 224.469 271.747C223.049 273.169 221.123 273.97 219.113 273.973ZM219.113 220.973C217.455 220.973 215.864 221.632 214.691 222.805C213.519 223.978 212.86 225.568 212.86 227.227V266.387C212.821 267.231 212.953 268.075 213.25 268.867C213.546 269.659 214 270.382 214.584 270.994C215.168 271.605 215.87 272.092 216.647 272.425C217.424 272.757 218.261 272.929 219.106 272.929C219.952 272.929 220.789 272.757 221.566 272.425C222.343 272.092 223.045 271.605 223.629 270.994C224.213 270.382 224.667 269.659 224.963 268.867C225.259 268.075 225.392 267.231 225.353 266.387V227.227C225.353 225.57 224.696 223.982 223.526 222.81C222.356 221.637 220.769 220.977 219.113 220.973Z" fill="#231F20"/>
    <path d="M203.54 277.747L200.753 249.453H99.2333L96.4466 277.747C96.0614 281.673 96.5023 285.636 97.7408 289.381C98.9794 293.127 100.988 296.572 103.638 299.494C106.288 302.416 109.52 304.752 113.127 306.35C116.734 307.948 120.635 308.774 124.58 308.773H175.407C179.352 308.774 183.253 307.948 186.86 306.35C190.466 304.752 193.699 302.416 196.348 299.494C198.998 296.572 201.007 293.127 202.246 289.381C203.484 285.636 203.925 281.673 203.54 277.747Z" fill="#231F20"/>
    <path d="M175.406 309.387H124.58C120.542 309.388 116.549 308.543 112.857 306.907C109.165 305.271 105.857 302.88 103.145 299.889C100.434 296.897 98.3785 293.37 97.1122 289.536C95.8459 285.702 95.3966 281.645 95.7931 277.627L98.5664 249.387C98.5858 249.223 98.6642 249.072 98.7868 248.961C98.9095 248.851 99.0681 248.789 99.2331 248.787H200.753C200.918 248.789 201.077 248.851 201.199 248.961C201.322 249.072 201.4 249.223 201.42 249.387L204.193 277.68C204.582 281.694 204.126 285.745 202.857 289.573C201.587 293.401 199.53 296.921 196.819 299.906C194.108 302.892 190.803 305.278 187.115 306.911C183.428 308.544 179.439 309.387 175.406 309.387ZM99.8331 250.067L97.1664 277.76C96.791 281.589 97.2201 285.453 98.4262 289.106C99.6323 292.76 101.589 296.12 104.17 298.972C106.751 301.825 109.9 304.106 113.415 305.67C116.93 307.234 120.733 308.046 124.58 308.053H175.406C179.258 308.053 183.067 307.247 186.588 305.686C190.109 304.126 193.265 301.845 195.852 298.992C198.439 296.139 200.4 292.776 201.609 289.119C202.818 285.462 203.249 281.593 202.873 277.76L200.206 250.067H99.8331Z" fill="#231F20"/>
    <path d="M298.9 117.773H1.08667V216.907H298.9V117.773Z" fill="white"/>
    <path d="M298.9 217.587H1.08659C0.909778 217.587 0.740208 217.516 0.615184 217.391C0.490159 217.266 0.419922 217.097 0.419922 216.92V117.773C0.419922 117.597 0.490159 117.427 0.615184 117.302C0.740208 117.177 0.909778 117.107 1.08659 117.107H298.9C299.077 117.107 299.246 117.177 299.371 117.302C299.496 117.427 299.567 117.597 299.567 117.773V216.92C299.567 217.097 299.496 217.266 299.371 217.391C299.246 217.516 299.077 217.587 298.9 217.587ZM1.75326 216.253H298.233V118.44H1.75326V216.253Z" fill="#231F20"/>
    <path d="M217.22 144.867H82.7665C79.8063 144.867 77.4065 147.266 77.4065 150.227V186.187C77.4065 189.147 79.8063 191.547 82.7665 191.547H217.22C220.18 191.547 222.58 189.147 222.58 186.187V150.227C222.58 147.266 220.18 144.867 217.22 144.867Z" fill="white"/>
    <path d="M217.22 192.2H82.7667C81.1694 192.196 79.6385 191.56 78.5091 190.431C77.3796 189.301 76.7435 187.771 76.74 186.173V150.173C76.74 149.382 76.8959 148.598 77.1988 147.867C77.5016 147.136 77.9455 146.471 78.5052 145.912C79.0648 145.352 79.7292 144.908 80.4603 144.605C81.1915 144.303 81.9752 144.147 82.7667 144.147H217.22C218.011 144.147 218.795 144.303 219.526 144.605C220.257 144.908 220.922 145.352 221.481 145.912C222.041 146.471 222.485 147.136 222.788 147.867C223.091 148.598 223.247 149.382 223.247 150.173V186.173C223.243 187.771 222.607 189.301 221.478 190.431C220.348 191.56 218.817 192.196 217.22 192.2ZM82.7667 145.533C81.523 145.537 80.3313 146.032 79.4519 146.912C78.5725 147.791 78.0768 148.983 78.0733 150.227V186.227C78.0768 187.47 78.5725 188.662 79.4519 189.541C80.3313 190.421 81.523 190.916 82.7667 190.92H217.22C218.464 190.916 219.655 190.421 220.535 189.541C221.414 188.662 221.91 187.47 221.913 186.227V150.227C221.91 148.983 221.414 147.791 220.535 146.912C219.655 146.032 218.464 145.537 217.22 145.533H82.7667Z" fill="#D1D3D4"/>
    <path d="M97.02 150.8H86.6333V156.027H97.02V150.8Z" fill="#D1D3D4"/>
    <path d="M97.0199 156.693H86.6332C86.4575 156.69 86.2899 156.619 86.1656 156.494C86.0413 156.37 85.97 156.202 85.9666 156.027V150.8C85.9666 150.623 86.0368 150.454 86.1618 150.329C86.2868 150.204 86.4564 150.133 86.6332 150.133H97.0199C97.1967 150.133 97.3663 150.204 97.4913 150.329C97.6163 150.454 97.6866 150.623 97.6866 150.8V156.053C97.6797 156.226 97.6064 156.388 97.4821 156.508C97.3578 156.627 97.1922 156.693 97.0199 156.693ZM87.2999 155.36H96.3532V151.467H87.3266L87.2999 155.36Z" fill="#D1D3D4"/>
    <path d="M97.02 160.653H86.6333V165.88H97.02V160.653Z" fill="white"/>
    <path d="M97.0199 166.547H86.6332C86.4564 166.547 86.2868 166.476 86.1618 166.351C86.0368 166.226 85.9666 166.057 85.9666 165.88V160.653C85.97 160.478 86.0413 160.31 86.1656 160.186C86.2899 160.061 86.4575 159.99 86.6332 159.987H97.0199C97.1967 159.987 97.3663 160.057 97.4913 160.182C97.6163 160.307 97.6866 160.477 97.6866 160.653V165.88C97.6866 166.057 97.6163 166.226 97.4913 166.351C97.3663 166.476 97.1967 166.547 97.0199 166.547ZM87.2999 165.213H96.3532V161.387H87.3266L87.2999 165.213Z" fill="#D1D3D4"/>
    <path d="M97.02 170.52H86.6333V175.747H97.02V170.52Z" fill="white"/>
    <path d="M97.0199 176.4H86.6332C86.4564 176.4 86.2868 176.33 86.1618 176.205C86.0368 176.08 85.9666 175.91 85.9666 175.733V170.52C85.9666 170.343 86.0368 170.174 86.1618 170.049C86.2868 169.924 86.4564 169.853 86.6332 169.853H97.0199C97.1967 169.853 97.3663 169.924 97.4913 170.049C97.6163 170.174 97.6866 170.343 97.6866 170.52V175.733C97.6866 175.91 97.6163 176.08 97.4913 176.205C97.3663 176.33 97.1967 176.4 97.0199 176.4ZM87.2999 175.067H96.3532V171.187H87.3266L87.2999 175.067Z" fill="#D1D3D4"/>
    <path d="M97.02 180.373H86.6333V185.6H97.02V180.373Z" fill="white"/>
    <path d="M97.0199 186.267H86.6332C86.4564 186.267 86.2868 186.196 86.1618 186.071C86.0368 185.946 85.9666 185.777 85.9666 185.6V180.373C85.9666 180.197 86.0368 180.027 86.1618 179.902C86.2868 179.777 86.4564 179.707 86.6332 179.707H97.0199C97.1967 179.707 97.3663 179.777 97.4913 179.902C97.6163 180.027 97.6866 180.197 97.6866 180.373V185.6C97.6866 185.777 97.6163 185.946 97.4913 186.071C97.3663 186.196 97.1967 186.267 97.0199 186.267ZM87.2999 184.933H96.3532V181.04H87.3266L87.2999 184.933Z" fill="#D1D3D4"/>
    <path d="M113.646 150.8H103.26V156.027H113.646V150.8Z" fill="white"/>
    <path d="M113.647 156.693H103.327C103.15 156.693 102.98 156.623 102.855 156.498C102.73 156.373 102.66 156.203 102.66 156.027V150.8C102.66 150.623 102.73 150.454 102.855 150.329C102.98 150.204 103.15 150.133 103.327 150.133H113.713C113.89 150.133 114.06 150.204 114.185 150.329C114.31 150.454 114.38 150.623 114.38 150.8V156.053C114.375 156.144 114.352 156.233 114.312 156.314C114.272 156.396 114.216 156.468 114.148 156.528C114.08 156.587 114 156.633 113.914 156.661C113.828 156.69 113.737 156.701 113.647 156.693ZM103.927 155.36H112.98V151.467H103.927V155.36Z" fill="#D1D3D4"/>
    <path d="M113.646 160.653H103.26V165.88H113.646V160.653Z" fill="white"/>
    <path d="M113.647 166.547H103.327C103.15 166.547 102.98 166.476 102.855 166.351C102.73 166.226 102.66 166.057 102.66 165.88V160.653C102.66 160.477 102.73 160.307 102.855 160.182C102.98 160.057 103.15 159.987 103.327 159.987H113.713C113.889 159.99 114.057 160.061 114.181 160.186C114.305 160.31 114.376 160.478 114.38 160.653V165.88C114.38 165.973 114.361 166.066 114.324 166.152C114.286 166.237 114.231 166.314 114.162 166.377C114.093 166.44 114.011 166.487 113.922 166.516C113.833 166.546 113.74 166.556 113.647 166.547ZM103.927 165.213H112.98V161.387H103.927V165.213Z" fill="#D1D3D4"/>
    <path d="M113.646 170.52H103.26V175.747H113.646V170.52Z" fill="white"/>
    <path d="M113.647 176.4H103.327C103.15 176.4 102.98 176.33 102.855 176.205C102.73 176.08 102.66 175.91 102.66 175.733V170.52C102.66 170.343 102.73 170.174 102.855 170.049C102.98 169.924 103.15 169.853 103.327 169.853H113.713C113.89 169.853 114.06 169.924 114.185 170.049C114.31 170.174 114.38 170.343 114.38 170.52V175.733C114.38 175.827 114.361 175.919 114.324 176.005C114.286 176.09 114.231 176.167 114.162 176.23C114.093 176.293 114.011 176.34 113.922 176.37C113.833 176.399 113.74 176.409 113.647 176.4ZM103.927 175.067H112.98V171.187H103.927V175.067Z" fill="#D1D3D4"/>
    <path d="M113.646 180.373H103.26V185.6H113.646V180.373Z" fill="white"/>
    <path d="M113.647 186.267H103.327C103.15 186.267 102.98 186.196 102.855 186.071C102.73 185.946 102.66 185.777 102.66 185.6V180.373C102.66 180.197 102.73 180.027 102.855 179.902C102.98 179.777 103.15 179.707 103.327 179.707H113.713C113.89 179.707 114.06 179.777 114.185 179.902C114.31 180.027 114.38 180.197 114.38 180.373V185.6C114.38 185.693 114.361 185.786 114.324 185.871C114.286 185.957 114.231 186.034 114.162 186.097C114.093 186.159 114.011 186.207 113.922 186.236C113.833 186.266 113.74 186.276 113.647 186.267ZM103.927 184.933H112.98V181.04H103.927V184.933Z" fill="#D1D3D4"/>
    <path d="M130.26 150.8H119.873V156.027H130.26V150.8Z" fill="white"/>
    <path d="M130.26 156.693H119.873C119.696 156.693 119.527 156.623 119.402 156.498C119.277 156.373 119.207 156.204 119.207 156.027V150.8C119.207 150.623 119.277 150.454 119.402 150.329C119.527 150.204 119.696 150.133 119.873 150.133H130.26C130.437 150.133 130.606 150.204 130.731 150.329C130.856 150.454 130.927 150.623 130.927 150.8V156.053C130.92 156.226 130.846 156.388 130.722 156.508C130.598 156.627 130.432 156.693 130.26 156.693ZM120.54 155.36H129.593V151.467H120.54V155.36Z" fill="#D1D3D4"/>
    <path d="M130.26 160.653H119.873V165.88H130.26V160.653Z" fill="white"/>
    <path d="M130.26 166.547H119.873C119.696 166.547 119.527 166.476 119.402 166.351C119.277 166.226 119.207 166.057 119.207 165.88V160.653C119.207 160.477 119.277 160.307 119.402 160.182C119.527 160.057 119.696 159.987 119.873 159.987H130.26C130.437 159.987 130.606 160.057 130.731 160.182C130.856 160.307 130.927 160.477 130.927 160.653V165.88C130.927 166.057 130.856 166.226 130.731 166.351C130.606 166.476 130.437 166.547 130.26 166.547ZM120.54 165.213H129.593V161.387H120.54V165.213Z" fill="#D1D3D4"/>
    <path d="M130.26 170.52H119.873V175.747H130.26V170.52Z" fill="white"/>
    <path d="M130.26 176.4H119.873C119.696 176.4 119.527 176.33 119.402 176.205C119.277 176.08 119.207 175.91 119.207 175.733V170.52C119.207 170.343 119.277 170.174 119.402 170.049C119.527 169.924 119.696 169.853 119.873 169.853H130.26C130.437 169.853 130.606 169.924 130.731 170.049C130.856 170.174 130.927 170.343 130.927 170.52V175.733C130.927 175.91 130.856 176.08 130.731 176.205C130.606 176.33 130.437 176.4 130.26 176.4ZM120.54 175.067H129.593V171.187H120.54V175.067Z" fill="#D1D3D4"/>
    <path d="M180.113 180.373H119.873V185.6H180.113V180.373Z" fill="#D1D3D4"/>
    <path d="M180.113 186.267H119.873C119.696 186.267 119.527 186.196 119.402 186.071C119.277 185.946 119.207 185.777 119.207 185.6V180.373C119.207 180.197 119.277 180.027 119.402 179.902C119.527 179.777 119.696 179.707 119.873 179.707H180.113C180.29 179.707 180.46 179.777 180.585 179.902C180.71 180.027 180.78 180.197 180.78 180.373V185.6C180.78 185.777 180.71 185.946 180.585 186.071C180.46 186.196 180.29 186.267 180.113 186.267ZM120.54 184.933H179.447V181.04H120.54V184.933Z" fill="#D1D3D4"/>
    <path d="M146.873 150.8H136.487V156.027H146.873V150.8Z" fill="white"/>
    <path d="M146.873 156.693H136.486C136.311 156.69 136.143 156.619 136.019 156.494C135.895 156.37 135.823 156.202 135.82 156.027V150.8C135.82 150.623 135.89 150.454 136.015 150.329C136.14 150.204 136.31 150.133 136.486 150.133H146.873C147.05 150.133 147.22 150.204 147.345 150.329C147.47 150.454 147.54 150.623 147.54 150.8V156.053C147.533 156.226 147.46 156.388 147.335 156.508C147.211 156.627 147.045 156.693 146.873 156.693ZM137.153 155.36H146.206V151.467H137.153V155.36Z" fill="#D1D3D4"/>
    <path d="M146.873 160.653H136.487V165.88H146.873V160.653Z" fill="white"/>
    <path d="M146.873 166.547H136.486C136.31 166.547 136.14 166.476 136.015 166.351C135.89 166.226 135.82 166.057 135.82 165.88V160.653C135.823 160.478 135.895 160.31 136.019 160.186C136.143 160.061 136.311 159.99 136.486 159.987H146.873C147.05 159.987 147.22 160.057 147.345 160.182C147.47 160.307 147.54 160.477 147.54 160.653V165.88C147.54 166.057 147.47 166.226 147.345 166.351C147.22 166.476 147.05 166.547 146.873 166.547ZM137.153 165.213H146.206V161.387H137.153V165.213Z" fill="#D1D3D4"/>
    <path d="M146.873 170.52H136.487V175.747H146.873V170.52Z" fill="white"/>
    <path d="M146.873 176.4H136.486C136.31 176.4 136.14 176.33 136.015 176.205C135.89 176.08 135.82 175.91 135.82 175.733V170.52C135.82 170.343 135.89 170.174 136.015 170.049C136.14 169.924 136.31 169.853 136.486 169.853H146.873C147.05 169.853 147.22 169.924 147.345 170.049C147.47 170.174 147.54 170.343 147.54 170.52V175.733C147.54 175.91 147.47 176.08 147.345 176.205C147.22 176.33 147.05 176.4 146.873 176.4ZM137.153 175.067H146.206V171.187H137.153V175.067Z" fill="#D1D3D4"/>
    <path d="M163.5 150.8H153.113V156.027H163.5V150.8Z" fill="white"/>
    <path d="M163.5 156.693H153.113C152.936 156.693 152.767 156.623 152.642 156.498C152.517 156.373 152.447 156.204 152.447 156.027V150.8C152.447 150.623 152.517 150.454 152.642 150.329C152.767 150.204 152.936 150.133 153.113 150.133H163.5C163.677 150.133 163.846 150.204 163.971 150.329C164.096 150.454 164.167 150.623 164.167 150.8V156.053C164.156 156.224 164.082 156.385 163.959 156.504C163.835 156.623 163.671 156.69 163.5 156.693ZM153.78 155.36H162.833V151.467H153.78V155.36Z" fill="#D1D3D4"/>
    <path d="M163.5 160.653H153.113V165.88H163.5V160.653Z" fill="white"/>
    <path d="M163.5 166.547H153.113C152.936 166.547 152.767 166.476 152.642 166.351C152.517 166.226 152.447 166.057 152.447 165.88V160.653C152.447 160.477 152.517 160.307 152.642 160.182C152.767 160.057 152.936 159.987 153.113 159.987H163.5C163.676 159.99 163.843 160.061 163.967 160.186C164.092 160.31 164.163 160.478 164.167 160.653V165.88C164.167 166.057 164.096 166.226 163.971 166.351C163.846 166.476 163.677 166.547 163.5 166.547ZM153.78 165.213H162.833V161.387H153.78V165.213Z" fill="#D1D3D4"/>
    <path d="M163.5 170.52H153.113V175.747H163.5V170.52Z" fill="white"/>
    <path d="M163.5 176.4H153.113C152.936 176.4 152.767 176.33 152.642 176.205C152.517 176.08 152.447 175.91 152.447 175.733V170.52C152.447 170.343 152.517 170.174 152.642 170.049C152.767 169.924 152.936 169.853 153.113 169.853H163.5C163.677 169.853 163.846 169.924 163.971 170.049C164.096 170.174 164.167 170.343 164.167 170.52V175.733C164.167 175.91 164.096 176.08 163.971 176.205C163.846 176.33 163.677 176.4 163.5 176.4ZM153.78 175.067H162.833V171.187H153.78V175.067Z" fill="#D1D3D4"/>
    <path d="M180.113 150.8H169.727V156.027H180.113V150.8Z" fill="white"/>
    <path d="M180.113 156.693H169.726C169.55 156.693 169.38 156.623 169.255 156.498C169.13 156.373 169.06 156.204 169.06 156.027V150.8C169.06 150.623 169.13 150.454 169.255 150.329C169.38 150.204 169.55 150.133 169.726 150.133H180.113C180.29 150.133 180.46 150.204 180.585 150.329C180.71 150.454 180.78 150.623 180.78 150.8V156.053C180.773 156.226 180.7 156.388 180.575 156.508C180.451 156.627 180.285 156.693 180.113 156.693ZM170.393 155.36H179.447V151.467H170.393V155.36Z" fill="#D1D3D4"/>
    <path d="M180.113 160.653H169.727V165.88H180.113V160.653Z" fill="white"/>
    <path d="M180.113 166.547H169.726C169.55 166.547 169.38 166.476 169.255 166.351C169.13 166.226 169.06 166.057 169.06 165.88V160.653C169.06 160.477 169.13 160.307 169.255 160.182C169.38 160.057 169.55 159.987 169.726 159.987H180.113C180.29 159.987 180.46 160.057 180.585 160.182C180.71 160.307 180.78 160.477 180.78 160.653V165.88C180.78 166.057 180.71 166.226 180.585 166.351C180.46 166.476 180.29 166.547 180.113 166.547ZM170.393 165.213H179.447V161.387H170.393V165.213Z" fill="#D1D3D4"/>
    <path d="M180.113 170.52H169.727V175.747H180.113V170.52Z" fill="white"/>
    <path d="M180.113 176.4H169.726C169.55 176.4 169.38 176.33 169.255 176.205C169.13 176.08 169.06 175.91 169.06 175.733V170.52C169.06 170.343 169.13 170.174 169.255 170.049C169.38 169.924 169.55 169.853 169.726 169.853H180.113C180.29 169.853 180.46 169.924 180.585 170.049C180.71 170.174 180.78 170.343 180.78 170.52V175.733C180.78 175.91 180.71 176.08 180.585 176.205C180.46 176.33 180.29 176.4 180.113 176.4ZM170.393 175.067H179.447V171.187H170.393V175.067Z" fill="#D1D3D4"/>
    <path d="M196.727 150.8H186.34V156.027H196.727V150.8Z" fill="white"/>
    <path d="M196.727 156.693H186.34C186.164 156.69 185.997 156.619 185.872 156.494C185.748 156.37 185.677 156.202 185.673 156.027V150.8C185.673 150.623 185.744 150.454 185.869 150.329C185.994 150.204 186.163 150.133 186.34 150.133H196.727C196.903 150.133 197.073 150.204 197.198 150.329C197.323 150.454 197.393 150.623 197.393 150.8V156.053C197.386 156.226 197.313 156.388 197.189 156.508C197.065 156.627 196.899 156.693 196.727 156.693ZM187.007 155.36H196.06V151.467H187.007V155.36Z" fill="#D1D3D4"/>
    <path d="M196.727 160.653H186.34V165.88H196.727V160.653Z" fill="white"/>
    <path d="M196.727 166.547H186.34C186.163 166.547 185.994 166.476 185.869 166.351C185.744 166.226 185.673 166.057 185.673 165.88V160.653C185.677 160.478 185.748 160.31 185.872 160.186C185.997 160.061 186.164 159.99 186.34 159.987H196.727C196.903 159.987 197.073 160.057 197.198 160.182C197.323 160.307 197.393 160.477 197.393 160.653V165.88C197.393 166.057 197.323 166.226 197.198 166.351C197.073 166.476 196.903 166.547 196.727 166.547ZM187.007 165.213H196.06V161.387H187.007V165.213Z" fill="#D1D3D4"/>
    <path d="M196.727 170.52H186.34V175.747H196.727V170.52Z" fill="white"/>
    <path d="M196.727 176.4H186.34C186.163 176.4 185.994 176.33 185.869 176.205C185.744 176.08 185.673 175.91 185.673 175.733V170.52C185.673 170.343 185.744 170.174 185.869 170.049C185.994 169.924 186.163 169.853 186.34 169.853H196.727C196.903 169.853 197.073 169.924 197.198 170.049C197.323 170.174 197.393 170.343 197.393 170.52V175.733C197.393 175.91 197.323 176.08 197.198 176.205C197.073 176.33 196.903 176.4 196.727 176.4ZM187.007 175.067H196.06V171.187H187.007V175.067Z" fill="#D1D3D4"/>
    <path d="M196.727 180.373H186.34V185.6H196.727V180.373Z" fill="white"/>
    <path d="M196.727 186.267H186.34C186.163 186.267 185.994 186.196 185.869 186.071C185.744 185.946 185.673 185.777 185.673 185.6V180.373C185.673 180.197 185.744 180.027 185.869 179.902C185.994 179.777 186.163 179.707 186.34 179.707H196.727C196.903 179.707 197.073 179.777 197.198 179.902C197.323 180.027 197.393 180.197 197.393 180.373V185.6C197.393 185.777 197.323 185.946 197.198 186.071C197.073 186.196 196.903 186.267 196.727 186.267ZM187.007 184.933H196.06V181.04H187.007V184.933Z" fill="#D1D3D4"/>
    <path d="M213.353 150.8H202.967V156.027H213.353V150.8Z" fill="white"/>
    <path d="M213.353 156.693H202.966C202.79 156.693 202.62 156.623 202.495 156.498C202.37 156.373 202.3 156.204 202.3 156.027V150.8C202.3 150.623 202.37 150.454 202.495 150.329C202.62 150.204 202.79 150.133 202.966 150.133H213.353C213.53 150.133 213.7 150.204 213.825 150.329C213.95 150.454 214.02 150.623 214.02 150.8V156.053C214.01 156.224 213.936 156.385 213.812 156.504C213.688 156.623 213.524 156.69 213.353 156.693ZM203.633 155.36H212.66V151.467H203.606L203.633 155.36Z" fill="#D1D3D4"/>
    <path d="M213.353 160.653H202.967V165.88H213.353V160.653Z" fill="white"/>
    <path d="M213.353 166.547H202.966C202.79 166.547 202.62 166.476 202.495 166.351C202.37 166.226 202.3 166.057 202.3 165.88V160.653C202.3 160.477 202.37 160.307 202.495 160.182C202.62 160.057 202.79 159.987 202.966 159.987H213.353C213.529 159.99 213.697 160.061 213.821 160.186C213.945 160.31 214.016 160.478 214.02 160.653V165.88C214.02 166.057 213.95 166.226 213.825 166.351C213.7 166.476 213.53 166.547 213.353 166.547ZM203.633 165.213H212.66V161.387H203.606L203.633 165.213Z" fill="#D1D3D4"/>
    <path d="M213.353 170.52H202.967V175.747H213.353V170.52Z" fill="white"/>
    <path d="M213.353 176.4H202.966C202.79 176.4 202.62 176.33 202.495 176.205C202.37 176.08 202.3 175.91 202.3 175.733V170.52C202.3 170.343 202.37 170.174 202.495 170.049C202.62 169.924 202.79 169.853 202.966 169.853H213.353C213.53 169.853 213.7 169.924 213.825 170.049C213.95 170.174 214.02 170.343 214.02 170.52V175.733C214.02 175.91 213.95 176.08 213.825 176.205C213.7 176.33 213.53 176.4 213.353 176.4ZM203.633 175.067H212.66V171.187H203.606L203.633 175.067Z" fill="#D1D3D4"/>
    <path d="M213.353 180.373H202.967V185.6H213.353V180.373Z" fill="white"/>
    <path d="M213.353 186.267H202.966C202.79 186.267 202.62 186.196 202.495 186.071C202.37 185.946 202.3 185.777 202.3 185.6V180.373C202.3 180.197 202.37 180.027 202.495 179.902C202.62 179.777 202.79 179.707 202.966 179.707H213.353C213.53 179.707 213.7 179.777 213.825 179.902C213.95 180.027 214.02 180.197 214.02 180.373V185.6C214.02 185.777 213.95 185.946 213.825 186.071C213.7 186.196 213.53 186.267 213.353 186.267ZM203.633 184.933H212.66V181.04H203.606L203.633 184.933Z" fill="#D1D3D4"/>
    <path d="M180.3 181.573C180.3 181.573 168.3 173.4 169.313 171.653C170.327 169.907 178.54 173.707 178.54 173.707C178.54 173.707 176.66 165.8 175.58 164.24C174.5 162.68 172.033 160.16 172.033 159.28C172.033 158.4 172.86 157.147 173.647 157.547C174.433 157.947 178.633 161.4 178.887 162.227C179.14 163.053 179.753 164.733 179.753 164.733C179.753 164.733 180.167 159.933 178.793 158.667C177.42 157.4 175.567 155.733 175.593 155.08C175.62 154.427 176.927 152.773 177.7 153.16C179.441 154.338 180.973 155.798 182.233 157.48C182.896 159.671 183.439 161.897 183.86 164.147C183.86 164.147 184.647 159.067 184.047 157.84C183.447 156.613 181.167 154.52 182.86 152.947C184.553 151.373 187.407 159.973 187.713 162.147C187.713 160.347 187.78 158.533 187.873 156.72C187.967 155.12 188.473 154.187 189.86 155.72C190.539 156.634 190.908 157.741 190.913 158.88C191.233 163.093 190.313 167.267 189.98 171.44C189.553 176.667 191.393 181.44 192.727 186.453C194.273 192.293 195.784 198.147 197.26 204.013C198.593 209.56 200.007 215.12 201.18 220.72C201.767 223.507 203.007 227.147 202.513 230.053C201.673 235.147 182.953 247.387 182.953 247.387L180.3 181.573Z" fill="white"/>
    <path d="M182.98 248.053C182.874 248.052 182.77 248.029 182.673 247.987C182.569 247.93 182.482 247.847 182.419 247.747C182.355 247.647 182.319 247.532 182.313 247.413L179.647 181.947C173.98 178.08 167.647 173.173 168.727 171.28C169.807 169.387 174.58 171.28 177.553 172.507C176.969 169.795 176.121 167.146 175.02 164.6C174.66 164.08 174.113 163.427 173.593 162.787C172.26 161.107 171.353 160.027 171.353 159.253C171.361 158.813 171.472 158.381 171.679 157.991C171.885 157.602 172.18 157.267 172.54 157.013C172.745 156.879 172.982 156.799 173.228 156.783C173.473 156.766 173.718 156.814 173.94 156.92C175.788 158.182 177.496 159.64 179.033 161.267C179.013 160.501 178.767 159.759 178.327 159.133L177.967 158.787C175.86 156.84 174.873 155.84 174.913 155.013C175.018 154.53 175.219 154.072 175.506 153.669C175.792 153.266 176.158 152.925 176.58 152.667C176.785 152.526 177.023 152.442 177.271 152.421C177.518 152.4 177.767 152.443 177.993 152.547C179.866 153.788 181.501 155.355 182.82 157.173C183.143 158.042 183.401 158.933 183.593 159.84C183.642 159.257 183.588 158.671 183.433 158.107C183.268 157.8 183.081 157.506 182.873 157.227C182.047 156.027 180.66 154.04 182.393 152.44C182.562 152.266 182.779 152.145 183.016 152.093C183.253 152.041 183.5 152.06 183.727 152.147C185.06 152.6 186.273 155.267 187.153 157.76C187.153 157.387 187.153 157.027 187.153 156.667C187.153 155.8 187.353 154.627 188.233 154.307C189.113 153.987 190.007 154.933 190.287 155.24C191.071 156.261 191.497 157.512 191.5 158.8C191.632 161.72 191.466 164.646 191.007 167.533C190.847 168.867 190.687 170.2 190.58 171.533C190.247 175.627 191.34 179.427 192.487 183.44C192.767 184.4 193.047 185.36 193.3 186.32C195.007 192.707 196.487 198.453 197.847 203.893C199.393 210.093 200.647 215.307 201.767 220.613C201.9 221.24 202.06 221.947 202.233 222.613C203.011 225.058 203.314 227.628 203.127 230.187C202.273 235.413 185.22 246.747 183.273 248.027C183.179 248.057 183.078 248.066 182.98 248.053ZM170.46 171.84C170.14 171.84 169.94 171.84 169.873 172C169.94 173.013 175.5 177.52 180.687 181.027C180.772 181.085 180.841 181.162 180.89 181.252C180.939 181.343 180.965 181.444 180.967 181.547L183.633 246.173C189.327 242.347 201.313 233.6 201.913 229.893C202.068 227.513 201.774 225.125 201.047 222.853C200.873 222.147 200.7 221.52 200.567 220.813C199.46 215.48 198.207 210.32 196.66 204.133C195.327 198.707 193.82 192.973 192.127 186.587C191.86 185.627 191.593 184.68 191.313 183.72C190.18 179.72 189.007 175.72 189.353 171.347C189.46 170.013 189.633 168.68 189.793 167.347C190.237 164.548 190.402 161.712 190.287 158.88C190.292 157.886 189.984 156.916 189.407 156.107C189.227 155.883 189.005 155.697 188.753 155.56C188.669 155.938 188.611 156.321 188.58 156.707C188.58 157.907 188.487 159.12 188.46 160.32V162.12C188.457 162.286 188.39 162.445 188.274 162.564C188.157 162.683 188 162.753 187.833 162.76C187.668 162.772 187.505 162.721 187.376 162.617C187.248 162.513 187.163 162.364 187.14 162.2C186.78 159.693 184.473 153.547 183.367 153.373C182.633 154.08 182.993 154.893 184.06 156.44C184.306 156.775 184.529 157.127 184.727 157.493C185.393 158.827 184.727 163.307 184.593 164.16C184.568 164.313 184.491 164.453 184.374 164.555C184.257 164.658 184.108 164.716 183.953 164.72C183.796 164.729 183.641 164.679 183.518 164.581C183.395 164.482 183.313 164.342 183.287 164.187C182.885 162.003 182.36 159.844 181.713 157.72C180.519 156.177 179.093 154.828 177.487 153.72C177.193 153.72 176.38 154.72 176.34 155.053C177.133 156.034 178.026 156.927 179.007 157.72L179.367 158.053C180.9 159.48 180.62 163.813 180.54 164.72C180.527 164.872 180.463 165.015 180.359 165.126C180.255 165.237 180.117 165.31 179.967 165.333C179.815 165.349 179.662 165.315 179.532 165.236C179.402 165.156 179.301 165.036 179.247 164.893C179.247 164.893 178.62 163.2 178.367 162.36C176.91 160.745 175.267 159.309 173.473 158.08C173.473 158.08 173.38 158.08 173.273 158.2C173.004 158.472 172.843 158.832 172.82 159.213C173.357 160.175 174.006 161.07 174.753 161.88C175.327 162.56 175.86 163.213 176.247 163.773C177.367 165.387 179.113 172.64 179.3 173.453C179.331 173.577 179.326 173.706 179.286 173.826C179.246 173.947 179.172 174.053 179.073 174.133C178.977 174.211 178.861 174.26 178.738 174.274C178.615 174.288 178.491 174.267 178.38 174.213C175.891 172.985 173.214 172.183 170.46 171.84Z" fill="#231F20"/>
    <path d="M116.9 222.64L128.26 177.387C128.26 177.387 135.633 174.6 136.433 171.213C137.233 167.827 130.66 171.213 130.66 171.213L133.047 163.213C133.047 163.213 135.167 167.387 136.5 165.2C137.833 163.013 133.833 154.84 132.247 155.04C130.66 155.24 121.5 158.427 120.9 160.027C120.3 161.627 118.7 173.173 118.7 173.173C118.7 173.173 95.0066 215.84 95.0066 218.773C95.0066 221.707 116.9 222.64 116.9 222.64Z" fill="white"/>
    <path d="M116.9 223.307C108.486 222.987 94.3665 221.973 94.3665 218.813C94.3665 215.653 115.326 177.867 118.06 172.987C118.286 171.333 119.686 161.4 120.273 159.827C121.06 157.747 130.74 154.6 132.166 154.427C132.913 154.32 133.766 155.013 134.74 156.507C136.153 158.68 138.286 163.587 137.073 165.587C136.928 165.87 136.709 166.11 136.439 166.279C136.169 166.448 135.858 166.54 135.54 166.547C135.063 166.442 134.614 166.239 134.221 165.949C133.828 165.66 133.501 165.291 133.26 164.867L131.726 169.987C133.286 169.32 135.54 168.653 136.593 169.427C136.863 169.663 137.054 169.976 137.14 170.324C137.226 170.673 137.203 171.039 137.073 171.373C136.3 174.68 130.406 177.24 128.833 177.88L117.54 222.8C117.502 222.942 117.42 223.069 117.304 223.16C117.189 223.251 117.047 223.303 116.9 223.307ZM132.286 155.747C130.593 155.96 122.046 159.133 121.526 160.307C121.006 161.48 119.806 170.107 119.366 173.293C119.354 173.377 119.327 173.459 119.286 173.533C110.193 189.88 95.7398 216.64 95.6731 218.867C96.0598 220.12 105.486 221.533 116.38 222L127.62 177.28C127.645 177.174 127.697 177.077 127.769 176.995C127.841 176.914 127.931 176.852 128.033 176.813C129.993 176.08 135.193 173.6 135.78 171.12C135.78 170.813 135.78 170.587 135.78 170.533C135.26 170.12 132.833 170.907 130.98 171.867C130.863 171.927 130.732 171.952 130.601 171.937C130.471 171.923 130.347 171.871 130.246 171.787C130.144 171.704 130.069 171.592 130.03 171.466C129.992 171.34 129.993 171.206 130.033 171.08L132.42 163.08C132.46 162.954 132.536 162.843 132.639 162.761C132.741 162.679 132.866 162.629 132.998 162.617C133.129 162.606 133.26 162.634 133.376 162.697C133.491 162.76 133.586 162.857 133.646 162.973C134.193 164.027 135.126 165.213 135.606 165.24C135.713 165.24 135.873 165.04 135.94 164.92C136.286 164.347 136.14 162.507 134.993 159.84C133.846 157.173 132.66 155.827 132.286 155.747Z" fill="#231F20"/>
    <path d="M180.22 219.427L176.567 228.053C176.567 228.053 141.26 223.187 121.153 230.867L120.26 218.147L94.26 213.387C93.2067 216.28 93.4867 255.573 99.46 270.72C105.433 285.867 125.233 298.72 165.78 291.147C165.78 291.147 195.953 279.147 202.553 263.48C206.78 253.44 206.553 228.813 205.7 215.307L180.22 219.427Z" fill="#56CCF2"/>
    <path d="M119.193 257.307C119.24 258.683 119.538 260.038 120.073 261.307C120.23 261.75 120.502 262.143 120.86 262.448C121.218 262.752 121.651 262.957 122.113 263.04C123.447 263.133 124.3 261.707 124.78 260.493C126.113 256.773 128.207 249.147 123.513 246.84C118.073 244.213 118.98 254.347 119.193 257.307Z" fill="white"/>
    <path d="M122.22 263.76H122.06C121.48 263.672 120.934 263.431 120.479 263.06C120.024 262.69 119.677 262.204 119.473 261.653C118.898 260.297 118.577 258.846 118.527 257.373V257.093C118.18 252.573 118.153 247.76 120.393 246.227C120.904 245.912 121.493 245.745 122.093 245.745C122.694 245.745 123.282 245.912 123.793 246.227C129.127 248.893 126.673 257.227 125.393 260.707C124.66 262.72 123.527 263.76 122.22 263.76ZM119.86 257.267C119.9 258.573 120.181 259.861 120.687 261.067C120.82 261.373 121.353 262.4 122.153 262.4C123.22 262.467 123.94 260.787 124.127 260.28C125.287 257.133 127.513 249.613 123.193 247.453C121.86 246.8 121.313 247.173 121.127 247.293C119.22 248.627 119.687 254.88 119.793 256.96L119.86 257.267Z" fill="#231F20"/>
    <path d="M169.233 255.013C169.286 256.388 169.584 257.743 170.113 259.013C170.27 259.456 170.542 259.85 170.9 260.155C171.258 260.459 171.691 260.663 172.153 260.747C173.487 260.84 174.34 259.413 174.82 258.2C176.153 254.467 178.247 246.853 173.553 244.547C168.113 241.92 169.02 252.053 169.233 255.013Z" fill="white"/>
    <path d="M172.26 261.467H172.113C171.517 261.393 170.952 261.156 170.482 260.782C170.011 260.408 169.653 259.911 169.446 259.347C168.869 257.996 168.548 256.549 168.5 255.08V254.8C168.166 250.28 168.126 245.467 170.366 243.933C170.878 243.618 171.466 243.452 172.066 243.452C172.667 243.452 173.255 243.618 173.766 243.933C179.1 246.6 176.646 254.933 175.366 258.413C174.713 260.387 173.566 261.467 172.26 261.467ZM171.9 244.8C171.636 244.788 171.377 244.868 171.166 245.027C169.26 246.36 169.726 252.613 169.833 254.693V254.96C169.872 256.271 170.152 257.564 170.66 258.773C170.793 259.067 171.326 260.107 172.126 260.107C173.206 260.107 173.913 258.507 174.1 257.987C175.26 254.84 177.486 247.32 173.166 245.16C172.774 244.953 172.343 244.83 171.9 244.8Z" fill="#231F20"/>
    <path d="M173.433 252.893C173.433 252.893 170.073 239.48 161.433 232.773C152.793 226.067 140.9 226.907 135.873 230.467C130.847 234.027 121.62 244.72 123.5 261.893C125.38 279.067 173.433 252.893 173.433 252.893Z" fill="white"/>
    <path d="M131.967 268.4C130.038 268.474 128.119 268.09 126.367 267.28C125.372 266.773 124.529 266.013 123.92 265.077C123.312 264.141 122.96 263.061 122.9 261.947C121.047 245.027 129.967 233.84 135.54 229.947C140.553 226.4 152.873 225.187 161.9 232.28C170.567 239.04 173.9 252.2 174.073 252.76C174.112 252.902 174.101 253.054 174.043 253.189C173.985 253.325 173.883 253.437 173.753 253.507C172.473 254.173 146.22 268.4 131.967 268.4ZM146.407 228.4C142.854 228.281 139.344 229.208 136.313 231.067C130.98 234.84 122.433 245.573 124.22 261.88C124.262 262.772 124.54 263.636 125.025 264.386C125.509 265.135 126.184 265.743 126.98 266.147C136.86 271.307 168.433 254.853 172.647 252.613C171.94 250.133 168.46 239.12 161.073 233.347C156.871 230.109 151.711 228.364 146.407 228.387V228.4Z" fill="#231F20"/>
    <path d="M159.326 248.667C156.073 249.667 153.006 251.08 149.833 252.253C150.5 249.413 154.18 246.107 156.153 244.053C148.606 242.227 139.606 244.96 133.486 249.493L136.153 243.933C132.297 245.356 128.796 247.599 125.891 250.506C122.986 253.413 120.746 256.916 119.326 260.773C114.1 274.693 120.54 291.653 134.26 297.52C145.74 302.413 160.633 300.787 170.1 292.547C175.123 287.928 178.334 281.668 179.153 274.893C180.126 268.04 179.62 259.613 176.26 253.56C174.566 250.467 171.966 247.613 168.26 247.227C166.002 247.104 163.741 247.402 161.593 248.107L159.326 248.667Z" fill="white"/>
    <path d="M148.06 300.96C143.229 300.971 138.445 300.01 133.993 298.133C120.247 292.253 113.247 275.053 118.687 260.547C120.154 256.574 122.473 252.971 125.482 249.991C128.49 247.01 132.114 244.724 136.1 243.293C136.226 243.249 136.362 243.244 136.491 243.278C136.619 243.312 136.735 243.384 136.823 243.485C136.91 243.585 136.965 243.709 136.982 243.842C136.998 243.974 136.974 244.108 136.913 244.227L135.3 247.52C141.86 243.44 149.9 241.84 156.393 243.413C156.508 243.441 156.613 243.498 156.698 243.58C156.782 243.663 156.843 243.766 156.873 243.88C156.904 243.991 156.906 244.109 156.878 244.221C156.85 244.333 156.793 244.436 156.713 244.52L155.673 245.573C153.895 247.195 152.348 249.052 151.073 251.093L153.167 250.267C155.127 249.48 157.167 248.667 159.207 248.027L161.367 247.4C163.608 246.66 165.97 246.353 168.327 246.493C171.687 246.84 174.633 249.16 176.833 253.16C179.847 258.667 180.967 266.827 179.807 274.973C178.956 281.918 175.645 288.328 170.473 293.04C164.184 298.266 156.236 301.074 148.06 300.96ZM134.927 245.147C131.477 246.638 128.366 248.812 125.781 251.54C123.196 254.267 121.191 257.489 119.887 261.013C114.687 274.867 121.353 291.307 134.46 296.907C146.14 301.893 160.58 299.893 169.593 292.053C174.514 287.543 177.651 281.416 178.433 274.787C179.553 266.92 178.433 259.08 175.607 253.813C174.273 251.293 171.807 248.2 168.127 247.827C165.941 247.701 163.751 247.991 161.673 248.68L159.553 249.307C157.527 249.933 155.553 250.72 153.62 251.493C152.447 251.973 151.273 252.44 150.087 252.827C149.974 252.865 149.852 252.873 149.735 252.849C149.618 252.826 149.51 252.772 149.42 252.693C149.328 252.614 149.26 252.511 149.223 252.396C149.185 252.281 149.179 252.158 149.207 252.04C149.807 249.467 152.62 246.64 154.673 244.573L154.847 244.413C147.367 243.08 139.06 246.16 133.94 249.973C133.821 250.064 133.676 250.113 133.527 250.113C133.377 250.113 133.232 250.064 133.113 249.973C132.999 249.878 132.921 249.748 132.889 249.603C132.858 249.458 132.876 249.307 132.94 249.173L134.927 245.147Z" fill="#231F20"/>
    <path d="M142.993 236.493C142.993 236.493 144.513 226.973 146.233 225.827C147.953 224.68 149.593 230.24 149.593 230.24" fill="white"/>
    <path d="M142.993 237.16H142.887C142.8 237.147 142.718 237.117 142.643 237.072C142.569 237.026 142.504 236.966 142.453 236.895C142.402 236.825 142.366 236.744 142.346 236.659C142.327 236.574 142.325 236.486 142.34 236.4C142.7 234.093 144.033 226.493 145.873 225.32C146.07 225.195 146.292 225.117 146.523 225.092C146.754 225.066 146.988 225.094 147.207 225.173C148.847 225.787 149.98 229.4 150.193 230.107C150.22 230.191 150.229 230.279 150.22 230.367C150.212 230.454 150.185 230.539 150.143 230.617C150.101 230.694 150.043 230.762 149.974 230.816C149.905 230.871 149.825 230.91 149.74 230.933C149.572 230.983 149.391 230.965 149.236 230.883C149.082 230.801 148.966 230.661 148.913 230.493C148.393 228.733 147.407 226.68 146.74 226.493C146.713 226.474 146.68 226.463 146.647 226.463C146.613 226.463 146.581 226.474 146.553 226.493C145.647 227.067 144.313 232.213 143.607 236.653C143.573 236.792 143.494 236.917 143.384 237.008C143.273 237.099 143.137 237.153 142.993 237.16Z" fill="#231F20"/>
    <path d="M155.927 235.267C156.685 235.267 157.3 234.652 157.3 233.893C157.3 233.135 156.685 232.52 155.927 232.52C155.168 232.52 154.553 233.135 154.553 233.893C154.553 234.652 155.168 235.267 155.927 235.267Z" fill="#231F20"/>
    <path d="M135.967 237C136.725 237 137.34 236.385 137.34 235.627C137.34 234.868 136.725 234.253 135.967 234.253C135.208 234.253 134.593 234.868 134.593 235.627C134.593 236.385 135.208 237 135.967 237Z" fill="#231F20"/>
    <path d="M186.406 235.2C186.293 235.201 186.181 235.173 186.081 235.12C185.981 235.066 185.896 234.988 185.833 234.893C183.5 231.107 176.086 229.56 176.006 229.56C175.83 229.525 175.674 229.42 175.574 229.27C175.474 229.12 175.438 228.937 175.473 228.76C175.509 228.583 175.613 228.428 175.763 228.328C175.913 228.228 176.096 228.191 176.273 228.227C176.593 228.293 184.273 229.907 186.94 234.173C186.988 234.247 187.021 234.33 187.037 234.417C187.052 234.504 187.05 234.593 187.03 234.679C187.01 234.765 186.973 234.846 186.921 234.917C186.868 234.988 186.802 235.048 186.727 235.093C186.631 235.157 186.521 235.194 186.406 235.2Z" fill="#231F20"/>
    <path d="M110.62 233.547C110.482 233.542 110.35 233.495 110.239 233.414C110.129 233.332 110.046 233.218 110.001 233.089C109.956 232.959 109.952 232.818 109.989 232.686C110.025 232.553 110.101 232.435 110.206 232.347C114.806 228.747 121.033 230.133 121.3 230.2C121.385 230.219 121.466 230.255 121.538 230.305C121.61 230.356 121.67 230.421 121.716 230.495C121.762 230.57 121.793 230.653 121.806 230.74C121.819 230.827 121.815 230.915 121.793 231C121.752 231.171 121.645 231.319 121.495 231.412C121.345 231.504 121.165 231.533 120.993 231.493C120.993 231.493 115.126 230.16 111.033 233.4C110.915 233.493 110.77 233.545 110.62 233.547Z" fill="#231F20"/>
    <path d="M120.207 229.773C120.111 229.772 120.017 229.752 119.929 229.713C119.842 229.674 119.764 229.617 119.7 229.547C119.7 229.48 113.86 222.88 107.206 223.333C107.119 223.339 107.031 223.327 106.948 223.298C106.865 223.27 106.789 223.225 106.723 223.167C106.657 223.109 106.604 223.038 106.566 222.959C106.527 222.88 106.505 222.794 106.5 222.707C106.493 222.62 106.503 222.532 106.53 222.449C106.557 222.367 106.6 222.29 106.657 222.224C106.715 222.158 106.784 222.104 106.863 222.066C106.941 222.027 107.026 222.005 107.113 222C114.433 221.507 120.446 228.373 120.713 228.667C120.836 228.794 120.905 228.963 120.905 229.14C120.905 229.317 120.836 229.486 120.713 229.613C120.643 229.672 120.563 229.716 120.476 229.744C120.389 229.771 120.297 229.781 120.207 229.773Z" fill="#231F20"/>
    <path d="M197.42 230.72H197.287C197.14 230.72 181.807 227.64 177.473 228.76C177.386 228.782 177.295 228.786 177.205 228.773C177.116 228.76 177.03 228.729 176.953 228.683C176.876 228.636 176.808 228.575 176.754 228.502C176.701 228.43 176.662 228.348 176.64 228.26C176.618 228.172 176.614 228.081 176.627 227.992C176.64 227.903 176.671 227.817 176.717 227.74C176.764 227.662 176.825 227.595 176.897 227.541C176.97 227.487 177.052 227.449 177.14 227.427C181.767 226.24 196.913 229.24 197.553 229.373C197.73 229.391 197.893 229.478 198.005 229.616C198.118 229.753 198.171 229.93 198.153 230.107C198.136 230.283 198.048 230.446 197.911 230.559C197.773 230.671 197.597 230.724 197.42 230.707V230.72Z" fill="#231F20"/>
    <path d="M41.5132 186.293C51.0935 186.293 58.8598 178.527 58.8598 168.947C58.8598 159.366 51.0935 151.6 41.5132 151.6C31.9329 151.6 24.1665 159.366 24.1665 168.947C24.1665 178.527 31.9329 186.293 41.5132 186.293Z" fill="white"/>
    <path d="M41.5133 186.96C37.9506 186.96 34.468 185.904 31.5057 183.924C28.5434 181.945 26.2346 179.132 24.8712 175.84C23.5078 172.549 23.1511 168.927 23.8461 165.432C24.5412 161.938 26.2568 158.729 28.776 156.209C31.2952 153.69 34.5049 151.974 37.9991 151.279C41.4934 150.584 45.1152 150.941 48.4067 152.305C51.6983 153.668 54.5116 155.977 56.4909 158.939C58.4702 161.901 59.5267 165.384 59.5267 168.947C59.5231 173.723 57.6242 178.303 54.2468 181.68C50.8694 185.058 46.2897 186.956 41.5133 186.96ZM41.5133 152.293C38.2144 152.293 34.9894 153.272 32.2464 155.104C29.5034 156.937 27.3655 159.542 26.103 162.59C24.8406 165.638 24.5102 168.992 25.1538 172.227C25.7974 175.463 27.3861 178.435 29.7188 180.768C32.0515 183.101 35.0236 184.689 38.2592 185.333C41.4948 185.976 44.8486 185.646 47.8965 184.384C50.9444 183.121 53.5494 180.983 55.3823 178.24C57.2151 175.497 58.1933 172.272 58.1933 168.973C58.1951 166.781 57.7651 164.61 56.9278 162.584C56.0905 160.558 54.8623 158.717 53.3134 157.165C51.7645 155.614 49.9253 154.383 47.9006 153.542C45.8759 152.702 43.7055 152.268 41.5133 152.267V152.293Z" fill="#D1D3D4"/>
    <path d="M46.8115 180.986C47.2845 181.801 48.3288 182.079 49.1441 181.606C49.9594 181.133 50.2369 180.088 49.7639 179.273L47.6764 175.675C47.2034 174.859 46.159 174.582 45.3437 175.055C44.5284 175.528 44.2509 176.572 44.7239 177.387L46.8115 180.986Z" fill="white"/>
    <path d="M48.2732 182.507C48.0662 182.506 47.8601 182.479 47.6599 182.427C47.3592 182.349 47.077 182.213 46.8297 182.025C46.5824 181.837 46.3751 181.602 46.2199 181.333L44.1266 177.72C43.8402 177.177 43.7752 176.545 43.9451 175.955C44.1151 175.366 44.5068 174.865 45.0381 174.558C45.5694 174.251 46.1989 174.161 46.7946 174.308C47.3904 174.455 47.906 174.828 48.2332 175.347L50.3266 178.947C50.4839 179.216 50.5864 179.514 50.628 179.823C50.6696 180.132 50.6495 180.446 50.5689 180.747C50.4883 181.049 50.3488 181.331 50.1585 181.578C49.9681 181.825 49.7307 182.032 49.4599 182.187C49.1 182.397 48.6903 182.508 48.2732 182.507ZM46.1799 175.493C45.9502 175.49 45.7262 175.564 45.5445 175.705C45.3628 175.845 45.2343 176.044 45.1799 176.267C45.1405 176.398 45.1297 176.536 45.1481 176.672C45.1665 176.807 45.2137 176.937 45.2866 177.053L47.3666 180.653C47.5111 180.892 47.7393 181.068 48.0066 181.147C48.2728 181.212 48.5541 181.174 48.7932 181.04C49.0312 180.898 49.2036 180.668 49.2732 180.4C49.3126 180.269 49.3234 180.131 49.305 179.995C49.2866 179.859 49.2394 179.729 49.1666 179.613L47.0866 176.013C46.9937 175.855 46.8613 175.724 46.7023 175.633C46.5433 175.542 46.3632 175.494 46.1799 175.493Z" fill="#D1D3D4"/>
    <path d="M41.5132 179.373C47.5294 179.373 52.4065 174.496 52.4065 168.48C52.4065 162.464 47.5294 157.587 41.5132 157.587C35.497 157.587 30.6199 162.464 30.6199 168.48C30.6199 174.496 35.497 179.373 41.5132 179.373Z" fill="white"/>
    <path d="M41.5267 180.053C39.5009 180.054 37.5102 179.524 35.7533 178.516C33.9963 177.508 32.5344 176.056 31.5133 174.307C30.3616 172.332 29.8213 170.06 29.9607 167.778C30.1002 165.496 30.9131 163.307 32.2967 161.487C33.6803 159.667 35.5725 158.298 37.734 157.553C39.8955 156.809 42.2293 156.722 44.4402 157.303C46.6512 157.885 48.64 159.109 50.1553 160.821C51.6706 162.533 52.6442 164.656 52.9532 166.921C53.2621 169.186 52.8925 171.492 51.891 173.547C50.8895 175.602 49.3011 177.314 47.3267 178.467C45.5699 179.504 43.5671 180.052 41.5267 180.053ZM32.66 173.6C33.6723 175.352 35.1817 176.765 36.9971 177.659C38.8125 178.553 40.8523 178.888 42.8584 178.622C44.8644 178.356 46.7465 177.501 48.2664 176.165C49.7863 174.829 50.8758 173.073 51.3968 171.117C51.9179 169.162 51.8471 167.096 51.1935 165.181C50.5399 163.266 49.3328 161.588 47.7251 160.359C46.1173 159.13 44.1811 158.406 42.1616 158.278C40.1421 158.15 38.13 158.624 36.38 159.64C35.2149 160.308 34.1938 161.201 33.3754 162.266C32.557 163.331 31.9576 164.547 31.6117 165.845C31.2659 167.143 31.1805 168.496 31.3604 169.827C31.5403 171.158 31.982 172.441 32.66 173.6Z" fill="#D1D3D4"/>
    <path d="M41.9931 178.24C46.9269 178.24 50.9265 174.24 50.9265 169.307C50.9265 164.373 46.9269 160.373 41.9931 160.373C37.0594 160.373 33.0598 164.373 33.0598 169.307C33.0598 174.24 37.0594 178.24 41.9931 178.24Z" fill="#D1D3D4"/>
    <path d="M264.647 173.227C264.647 167.792 260.241 163.387 254.807 163.387C249.372 163.387 244.967 167.792 244.967 173.227V181.267C244.967 186.701 249.372 191.107 254.807 191.107C260.241 191.107 264.647 186.701 264.647 181.267V173.227Z" fill="white"/>
    <path d="M254.806 191.773C252.022 191.766 249.354 190.657 247.385 188.688C245.416 186.719 244.307 184.051 244.3 181.267V173.267C244.3 170.48 245.407 167.808 247.377 165.837C249.347 163.867 252.02 162.76 254.806 162.76C257.593 162.76 260.265 163.867 262.236 165.837C264.206 167.808 265.313 170.48 265.313 173.267V181.267C265.31 184.052 264.202 186.723 262.232 188.692C260.262 190.662 257.592 191.77 254.806 191.773ZM254.806 164.053C252.375 164.057 250.043 165.024 248.324 166.744C246.604 168.464 245.637 170.795 245.633 173.227V181.227C245.633 183.66 246.6 185.993 248.32 187.713C250.04 189.434 252.374 190.4 254.806 190.4C257.239 190.4 259.573 189.434 261.293 187.713C263.013 185.993 263.98 183.66 263.98 181.227V173.227C263.976 170.795 263.009 168.464 261.289 166.744C259.57 165.024 257.238 164.057 254.806 164.053Z" fill="#D1D3D4"/>
    <path d="M264.66 173.893H244.966C244.79 173.893 244.62 173.823 244.495 173.698C244.37 173.573 244.3 173.404 244.3 173.227C244.3 173.05 244.37 172.88 244.495 172.755C244.62 172.63 244.79 172.56 244.966 172.56H264.66C264.837 172.56 265.006 172.63 265.131 172.755C265.256 172.88 265.326 173.05 265.326 173.227C265.326 173.404 265.256 173.573 265.131 173.698C265.006 173.823 264.837 173.893 264.66 173.893Z" fill="#D1D3D4"/>
    <path d="M254.807 171.04C254.63 171.04 254.46 170.97 254.335 170.845C254.21 170.72 254.14 170.55 254.14 170.373V163.387C254.14 163.21 254.21 163.04 254.335 162.915C254.46 162.79 254.63 162.72 254.807 162.72C254.983 162.72 255.153 162.79 255.278 162.915C255.403 163.04 255.473 163.21 255.473 163.387V170.373C255.473 170.55 255.403 170.72 255.278 170.845C255.153 170.97 254.983 171.04 254.807 171.04Z" fill="#D1D3D4"/>
    <path d="M149.993 291.413C149.906 291.408 149.82 291.386 149.741 291.348C149.662 291.309 149.591 291.256 149.533 291.19C149.475 291.124 149.43 291.048 149.402 290.965C149.373 290.882 149.361 290.794 149.367 290.707C149.367 290.44 149.887 284.04 157.967 278.56C158.115 278.465 158.294 278.43 158.468 278.462C158.641 278.494 158.796 278.591 158.9 278.733C158.997 278.882 159.032 279.064 158.997 279.238C158.962 279.413 158.86 279.566 158.713 279.667C151.207 284.773 150.713 290.733 150.713 290.8C150.706 290.888 150.682 290.973 150.643 291.051C150.603 291.13 150.548 291.199 150.481 291.256C150.414 291.313 150.336 291.357 150.253 291.384C150.169 291.411 150.081 291.421 149.993 291.413Z" fill="#D1D3D4"/>
    <path d="M146.3 291.427H146.167C146.073 291.427 136.38 289.48 135.3 281.093C135.277 280.918 135.325 280.741 135.432 280.601C135.54 280.462 135.698 280.37 135.873 280.347C136.048 280.324 136.225 280.372 136.365 280.479C136.505 280.586 136.597 280.745 136.62 280.92C137.58 288.347 146.327 290.093 146.42 290.107C146.597 290.123 146.76 290.208 146.874 290.344C146.988 290.481 147.043 290.657 147.027 290.833C147.011 291.01 146.925 291.173 146.789 291.287C146.653 291.401 146.477 291.456 146.3 291.44V291.427Z" fill="#D1D3D4"/>
    <path d="M272.273 0.666687H27.7131V136.987H272.273V0.666687Z" fill="white"/>
    <path d="M272.273 137.653H27.7133C27.5365 137.653 27.3669 137.583 27.2419 137.458C27.1169 137.333 27.0466 137.163 27.0466 136.987V0.666667C27.0466 0.489856 27.1169 0.320286 27.2419 0.195262C27.3669 0.0702374 27.5365 0 27.7133 0H272.273C272.45 0 272.62 0.0702374 272.745 0.195262C272.87 0.320286 272.94 0.489856 272.94 0.666667V136.987C272.94 137.163 272.87 137.333 272.745 137.458C272.62 137.583 272.45 137.653 272.273 137.653ZM28.38 136.32H271.607V1.38667H28.38V136.32Z" fill="#231F20"/>
    <path d="M270.42 15.0267H29.5666C29.3898 15.0267 29.2202 14.9565 29.0952 14.8314C28.9701 14.7064 28.8999 14.5368 28.8999 14.36C28.8999 14.1832 28.9701 14.0136 29.0952 13.8886C29.2202 13.7636 29.3898 13.6934 29.5666 13.6934H270.42C270.597 13.6934 270.766 13.7636 270.891 13.8886C271.016 14.0136 271.087 14.1832 271.087 14.36C271.087 14.5368 271.016 14.7064 270.891 14.8314C270.766 14.9565 270.597 15.0267 270.42 15.0267Z" fill="#D1D3D4"/>
    <path d="M35.94 9.22669C37.1182 9.22669 38.0733 8.27156 38.0733 7.09335C38.0733 5.91515 37.1182 4.96002 35.94 4.96002C34.7618 4.96002 33.8066 5.91515 33.8066 7.09335C33.8066 8.27156 34.7618 9.22669 35.94 9.22669Z" fill="#D1D3D4"/>
    <path d="M44.7 9.22669C45.8782 9.22669 46.8333 8.27156 46.8333 7.09335C46.8333 5.91515 45.8782 4.96002 44.7 4.96002C43.5218 4.96002 42.5667 5.91515 42.5667 7.09335C42.5667 8.27156 43.5218 9.22669 44.7 9.22669Z" fill="#D1D3D4"/>
    <path d="M53.46 9.22669C54.6382 9.22669 55.5933 8.27156 55.5933 7.09335C55.5933 5.91515 54.6382 4.96002 53.46 4.96002C52.2818 4.96002 51.3267 5.91515 51.3267 7.09335C51.3267 8.27156 52.2818 9.22669 53.46 9.22669Z" fill="#D1D3D4"/>
    <path d="M73.74 27.12H58.82C58.6432 27.12 58.4736 27.0498 58.3486 26.9248C58.2236 26.7997 58.1533 26.6302 58.1533 26.4534C58.1533 26.2765 58.2236 26.107 58.3486 25.9819C58.4736 25.8569 58.6432 25.7867 58.82 25.7867H73.74C73.9168 25.7867 74.0864 25.8569 74.2114 25.9819C74.3364 26.107 74.4067 26.2765 74.4067 26.4534C74.4067 26.6302 74.3364 26.7997 74.2114 26.9248C74.0864 27.0498 73.9168 27.12 73.74 27.12Z" fill="#231F20"/>
    <path d="M111.327 27.12H81.58C81.4032 27.12 81.2336 27.0498 81.1086 26.9248C80.9836 26.7997 80.9133 26.6302 80.9133 26.4534C80.9133 26.2765 80.9836 26.107 81.1086 25.9819C81.2336 25.8569 81.4032 25.7867 81.58 25.7867H111.327C111.503 25.7867 111.673 25.8569 111.798 25.9819C111.923 26.107 111.993 26.2765 111.993 26.4534C111.993 26.6302 111.923 26.7997 111.798 26.9248C111.673 27.0498 111.503 27.12 111.327 27.12Z" fill="#56CCF2"/>
    <path d="M120.287 37.0267H90.54C90.3631 37.0267 90.1936 36.9564 90.0685 36.8314C89.9435 36.7064 89.8733 36.5368 89.8733 36.36C89.8733 36.1832 89.9435 36.0136 90.0685 35.8886C90.1936 35.7636 90.3631 35.6933 90.54 35.6933H120.287C120.463 35.6933 120.633 35.7636 120.758 35.8886C120.883 36.0136 120.953 36.1832 120.953 36.36C120.953 36.5368 120.883 36.7064 120.758 36.8314C120.633 36.9564 120.463 37.0267 120.287 37.0267Z" fill="#56CCF2"/>
    <path d="M77.2332 37.0267H62.3266C62.1498 37.0267 61.9802 36.9564 61.8552 36.8314C61.7302 36.7064 61.6599 36.5368 61.6599 36.36C61.6599 36.1832 61.7302 36.0136 61.8552 35.8886C61.9802 35.7636 62.1498 35.6933 62.3266 35.6933H77.2332C77.41 35.6933 77.5796 35.7636 77.7047 35.8886C77.8297 36.0136 77.8999 36.1832 77.8999 36.36C77.8999 36.5368 77.8297 36.7064 77.7047 36.8314C77.5796 36.9564 77.41 37.0267 77.2332 37.0267Z" fill="#231F20"/>
    <path d="M77.8066 46.9333H65.8066C65.6297 46.9333 65.4602 46.8631 65.3351 46.7381C65.2101 46.613 65.1399 46.4435 65.1399 46.2667C65.1399 46.0899 65.2101 45.9203 65.3351 45.7953C65.4602 45.6702 65.6297 45.6 65.8066 45.6H77.8066C77.9834 45.6 78.1529 45.6702 78.278 45.7953C78.403 45.9203 78.4732 46.0899 78.4732 46.2667C78.4732 46.4435 78.403 46.613 78.278 46.7381C78.1529 46.8631 77.9834 46.9333 77.8066 46.9333Z" fill="#231F20"/>
    <path d="M125.607 46.9333H88.3666C88.1898 46.9333 88.0202 46.8631 87.8952 46.7381C87.7702 46.613 87.7 46.4435 87.7 46.2667C87.7 46.0899 87.7702 45.9203 87.8952 45.7953C88.0202 45.6702 88.1898 45.6 88.3666 45.6H125.607C125.783 45.6 125.953 45.6702 126.078 45.7953C126.203 45.9203 126.273 46.0899 126.273 46.2667C126.273 46.4435 126.203 46.613 126.078 46.7381C125.953 46.8631 125.783 46.9333 125.607 46.9333Z" fill="#56CCF2"/>
    <path d="M84.2332 56.84H69.3266C69.1498 56.84 68.9802 56.7698 68.8552 56.6447C68.7302 56.5197 68.6599 56.3501 68.6599 56.1733C68.6599 55.9965 68.7302 55.827 68.8552 55.7019C68.9802 55.5769 69.1498 55.5067 69.3266 55.5067H84.2332C84.4101 55.5067 84.5796 55.5769 84.7047 55.7019C84.8297 55.827 84.8999 55.9965 84.8999 56.1733C84.8999 56.3501 84.8297 56.5197 84.7047 56.6447C84.5796 56.7698 84.4101 56.84 84.2332 56.84Z" fill="#231F20"/>
    <path d="M133.3 56.84H89.0331C88.8563 56.84 88.6868 56.7698 88.5617 56.6447C88.4367 56.5197 88.3665 56.3501 88.3665 56.1733C88.3665 55.9965 88.4367 55.827 88.5617 55.7019C88.6868 55.5769 88.8563 55.5067 89.0331 55.5067H133.3C133.477 55.5067 133.646 55.5769 133.771 55.7019C133.896 55.827 133.966 55.9965 133.966 56.1733C133.966 56.3501 133.896 56.5197 133.771 56.6447C133.646 56.7698 133.477 56.84 133.3 56.84Z" fill="#56CCF2"/>
    <path d="M80.2733 66.72H65.3666C65.1898 66.72 65.0202 66.6498 64.8952 66.5247C64.7702 66.3997 64.7 66.2301 64.7 66.0533C64.7 65.8765 64.7702 65.7069 64.8952 65.5819C65.0202 65.4569 65.1898 65.3867 65.3666 65.3867H80.2733C80.4501 65.3867 80.6197 65.4569 80.7447 65.5819C80.8697 65.7069 80.94 65.8765 80.94 66.0533C80.94 66.2301 80.8697 66.3997 80.7447 66.5247C80.6197 66.6498 80.4501 66.72 80.2733 66.72Z" fill="#231F20"/>
    <path d="M109.993 66.72H85.9933C85.8165 66.72 85.647 66.6498 85.5219 66.5247C85.3969 66.3997 85.3267 66.2301 85.3267 66.0533C85.3267 65.8765 85.3969 65.7069 85.5219 65.5819C85.647 65.4569 85.8165 65.3867 85.9933 65.3867H109.993C110.17 65.3867 110.34 65.4569 110.465 65.5819C110.59 65.7069 110.66 65.8765 110.66 66.0533C110.66 66.2301 110.59 66.3997 110.465 66.5247C110.34 66.6498 110.17 66.72 109.993 66.72Z" fill="#56CCF2"/>
    <path d="M143.18 66.72H119.18C119.003 66.72 118.833 66.6498 118.708 66.5247C118.583 66.3997 118.513 66.2301 118.513 66.0533C118.513 65.8765 118.583 65.7069 118.708 65.5819C118.833 65.4569 119.003 65.3867 119.18 65.3867H143.18C143.357 65.3867 143.526 65.4569 143.651 65.5819C143.776 65.7069 143.846 65.8765 143.846 66.0533C143.846 66.2301 143.776 66.3997 143.651 66.5247C143.526 66.6498 143.357 66.72 143.18 66.72Z" fill="#56CCF2"/>
    <path d="M70.5 76.6533H65.3666C65.1898 76.6533 65.0202 76.5831 64.8952 76.4581C64.7702 76.3331 64.7 76.1635 64.7 75.9867C64.7 75.8099 64.7702 75.6403 64.8952 75.5153C65.0202 75.3902 65.1898 75.32 65.3666 75.32H70.5C70.6768 75.32 70.8463 75.3902 70.9714 75.5153C71.0964 75.6403 71.1666 75.8099 71.1666 75.9867C71.1666 76.1635 71.0964 76.3331 70.9714 76.4581C70.8463 76.5831 70.6768 76.6533 70.5 76.6533Z" fill="#231F20"/>
    <path d="M109.993 76.6533H79.3266C79.1498 76.6533 78.9802 76.5831 78.8552 76.4581C78.7302 76.3331 78.6599 76.1635 78.6599 75.9867C78.6599 75.8099 78.7302 75.6403 78.8552 75.5153C78.9802 75.3902 79.1498 75.32 79.3266 75.32H109.993C110.17 75.32 110.34 75.3902 110.465 75.5153C110.59 75.6403 110.66 75.8099 110.66 75.9867C110.66 76.1635 110.59 76.3331 110.465 76.4581C110.34 76.5831 110.17 76.6533 109.993 76.6533Z" fill="#56CCF2"/>
    <path d="M122.1 76.6533H113.527C113.35 76.6533 113.18 76.5831 113.055 76.4581C112.93 76.3331 112.86 76.1635 112.86 75.9867C112.86 75.8099 112.93 75.6403 113.055 75.5153C113.18 75.3902 113.35 75.32 113.527 75.32H122.1C122.277 75.32 122.446 75.3902 122.571 75.5153C122.696 75.6403 122.767 75.8099 122.767 75.9867C122.767 76.1635 122.696 76.3331 122.571 76.4581C122.446 76.5831 122.277 76.6533 122.1 76.6533Z" fill="#56CCF2"/>
    <path d="M73.4333 86.56H65.3666C65.1898 86.56 65.0202 86.4897 64.8952 86.3647C64.7702 86.2397 64.7 86.0701 64.7 85.8933C64.7 85.7165 64.7702 85.5469 64.8952 85.4219C65.0202 85.2969 65.1898 85.2267 65.3666 85.2267H73.4333C73.6101 85.2267 73.7797 85.2969 73.9047 85.4219C74.0297 85.5469 74.1 85.7165 74.1 85.8933C74.1 86.0701 74.0297 86.2397 73.9047 86.3647C73.7797 86.4897 73.6101 86.56 73.4333 86.56Z" fill="#231F20"/>
    <path d="M117.526 86.56H81.0331C80.8563 86.56 80.6868 86.4897 80.5617 86.3647C80.4367 86.2397 80.3665 86.0701 80.3665 85.8933C80.3665 85.7165 80.4367 85.5469 80.5617 85.4219C80.6868 85.2969 80.8563 85.2267 81.0331 85.2267H117.526C117.703 85.2267 117.873 85.2969 117.998 85.4219C118.123 85.5469 118.193 85.7165 118.193 85.8933C118.193 86.0701 118.123 86.2397 117.998 86.3647C117.873 86.4897 117.703 86.56 117.526 86.56Z" fill="#56CCF2"/>
    <path d="M136.033 86.56H121.127C120.95 86.56 120.78 86.4897 120.655 86.3647C120.53 86.2397 120.46 86.0701 120.46 85.8933C120.46 85.7165 120.53 85.5469 120.655 85.4219C120.78 85.2969 120.95 85.2267 121.127 85.2267H136.033C136.21 85.2267 136.38 85.2969 136.505 85.4219C136.63 85.5469 136.7 85.7165 136.7 85.8933C136.7 86.0701 136.63 86.2397 136.505 86.3647C136.38 86.4897 136.21 86.56 136.033 86.56Z" fill="#56CCF2"/>
    <path d="M69.7799 96.4667H61.8732C61.6964 96.4667 61.5268 96.3964 61.4018 96.2714C61.2768 96.1464 61.2065 95.9768 61.2065 95.8C61.2065 95.6232 61.2768 95.4536 61.4018 95.3286C61.5268 95.2036 61.6964 95.1333 61.8732 95.1333H69.7799C69.9567 95.1333 70.1263 95.2036 70.2513 95.3286C70.3763 95.4536 70.4465 95.6232 70.4465 95.8C70.4465 95.9768 70.3763 96.1464 70.2513 96.2714C70.1263 96.3964 69.9567 96.4667 69.7799 96.4667Z" fill="#231F20"/>
    <path d="M113.527 96.4667H78.9933C78.8165 96.4667 78.647 96.3964 78.5219 96.2714C78.3969 96.1464 78.3267 95.9768 78.3267 95.8C78.3267 95.6232 78.3969 95.4536 78.5219 95.3286C78.647 95.2036 78.8165 95.1333 78.9933 95.1333H113.527C113.703 95.1333 113.873 95.2036 113.998 95.3286C114.123 95.4536 114.193 95.6232 114.193 95.8C114.193 95.9768 114.123 96.1464 113.998 96.2714C113.873 96.3964 113.703 96.4667 113.527 96.4667Z" fill="#56CCF2"/>
    <path d="M76.7799 106.373H61.8732C61.6964 106.373 61.5268 106.303 61.4018 106.178C61.2768 106.053 61.2065 105.883 61.2065 105.707C61.2065 105.53 61.2768 105.36 61.4018 105.235C61.5268 105.11 61.6964 105.04 61.8732 105.04H76.7799C76.9567 105.04 77.1263 105.11 77.2513 105.235C77.3763 105.36 77.4465 105.53 77.4465 105.707C77.4465 105.883 77.3763 106.053 77.2513 106.178C77.1263 106.303 76.9567 106.373 76.7799 106.373Z" fill="#231F20"/>
    <path d="M93.8198 116.28H64.0732C63.8963 116.28 63.7268 116.21 63.6018 116.085C63.4767 115.96 63.4065 115.79 63.4065 115.613C63.4065 115.437 63.4767 115.267 63.6018 115.142C63.7268 115.017 63.8963 114.947 64.0732 114.947H93.8198C93.9966 114.947 94.1662 115.017 94.2912 115.142C94.4163 115.267 94.4865 115.437 94.4865 115.613C94.4865 115.79 94.4163 115.96 94.2912 116.085C94.1662 116.21 93.9966 116.28 93.8198 116.28Z" fill="#231F20"/>
    <path d="M122.1 116.28H101.42C101.243 116.28 101.073 116.21 100.948 116.085C100.823 115.96 100.753 115.79 100.753 115.613C100.753 115.437 100.823 115.267 100.948 115.142C101.073 115.017 101.243 114.947 101.42 114.947H122.1C122.277 114.947 122.446 115.017 122.571 115.142C122.696 115.267 122.767 115.437 122.767 115.613C122.767 115.79 122.696 115.96 122.571 116.085C122.446 116.21 122.277 116.28 122.1 116.28Z" fill="#56CCF2"/>
    <path d="M150.66 116.28H125.06C124.883 116.28 124.714 116.21 124.589 116.085C124.464 115.96 124.393 115.79 124.393 115.613C124.393 115.437 124.464 115.267 124.589 115.142C124.714 115.017 124.883 114.947 125.06 114.947H150.66C150.837 114.947 151.006 115.017 151.131 115.142C151.256 115.267 151.327 115.437 151.327 115.613C151.327 115.79 151.256 115.96 151.131 116.085C151.006 116.21 150.837 116.28 150.66 116.28Z" fill="#56CCF2"/>
    <path d="M108.727 126.187H65.3666C65.1898 126.187 65.0202 126.116 64.8952 125.991C64.7702 125.866 64.7 125.697 64.7 125.52C64.7 125.343 64.7702 125.174 64.8952 125.049C65.0202 124.924 65.1898 124.853 65.3666 124.853H108.727C108.903 124.853 109.073 124.924 109.198 125.049C109.323 125.174 109.393 125.343 109.393 125.52C109.393 125.697 109.323 125.866 109.198 125.991C109.073 126.116 108.903 126.187 108.727 126.187Z" fill="#231F20"/>
    <path d="M133.86 126.187H114.353C114.176 126.187 114.007 126.116 113.882 125.991C113.757 125.866 113.687 125.697 113.687 125.52C113.687 125.343 113.757 125.174 113.882 125.049C114.007 124.924 114.176 124.853 114.353 124.853H133.86C134.037 124.853 134.206 124.924 134.331 125.049C134.456 125.174 134.527 125.343 134.527 125.52C134.527 125.697 134.456 125.866 134.331 125.991C134.206 126.116 134.037 126.187 133.86 126.187Z" fill="#56CCF2"/>
    <path d="M195.18 126.187H149.407C149.23 126.187 149.06 126.116 148.935 125.991C148.81 125.866 148.74 125.697 148.74 125.52C148.74 125.343 148.81 125.174 148.935 125.049C149.06 124.924 149.23 124.853 149.407 124.853H195.18C195.357 124.853 195.526 124.924 195.651 125.049C195.776 125.174 195.847 125.343 195.847 125.52C195.847 125.697 195.776 125.866 195.651 125.991C195.526 126.116 195.357 126.187 195.18 126.187Z" fill="#56CCF2"/>
    <path d="M159.487 56.84H139.327C139.15 56.84 138.98 56.7698 138.855 56.6447C138.73 56.5197 138.66 56.3501 138.66 56.1733C138.66 55.9965 138.73 55.827 138.855 55.7019C138.98 55.5769 139.15 55.5067 139.327 55.5067H159.487C159.663 55.5067 159.833 55.5769 159.958 55.7019C160.083 55.827 160.153 55.9965 160.153 56.1733C160.153 56.3501 160.083 56.5197 159.958 56.6447C159.833 56.7698 159.663 56.84 159.487 56.84Z" fill="#56CCF2"/>
    <path d="M174.46 56.9467C167.486 56.9467 167.273 56.8267 167.153 56.76C167.075 56.7193 167.005 56.6634 166.949 56.5956C166.892 56.5279 166.85 56.4495 166.824 56.3652C166.798 56.2808 166.789 56.1922 166.797 56.1043C166.806 56.0164 166.831 55.9311 166.873 55.8533C166.944 55.7179 167.061 55.6117 167.202 55.5532C167.343 55.4948 167.5 55.4877 167.646 55.5333C168.7 55.6667 181.806 55.5333 190.406 55.5333C190.583 55.5333 190.753 55.6036 190.878 55.7286C191.003 55.8536 191.073 56.0232 191.073 56.2C191.073 56.3768 191.003 56.5464 190.878 56.6714C190.753 56.7964 190.583 56.8667 190.406 56.8667C182.94 56.9067 177.886 56.9467 174.46 56.9467Z" fill="#56CCF2"/>
    <path d="M156.26 37.0267H127.007C126.83 37.0267 126.66 36.9564 126.535 36.8314C126.41 36.7064 126.34 36.5368 126.34 36.36C126.34 36.1832 126.41 36.0136 126.535 35.8886C126.66 35.7636 126.83 35.6933 127.007 35.6933H156.26C156.437 35.6933 156.606 35.7636 156.731 35.8886C156.856 36.0136 156.927 36.1832 156.927 36.36C156.927 36.5368 156.856 36.7064 156.731 36.8314C156.606 36.9564 156.437 37.0267 156.26 37.0267Z" fill="#56CCF2"/>
    <path d="M191.327 37.0267H162.14C161.963 37.0267 161.794 36.9564 161.669 36.8314C161.544 36.7064 161.473 36.5368 161.473 36.36C161.473 36.1832 161.544 36.0136 161.669 35.8886C161.794 35.7636 161.963 35.6933 162.14 35.6933H191.327C191.504 35.6933 191.673 35.7636 191.798 35.8886C191.923 36.0136 191.993 36.1832 191.993 36.36C191.993 36.5368 191.923 36.7064 191.798 36.8314C191.673 36.9564 191.504 37.0267 191.327 37.0267Z" fill="#56CCF2"/>
    <path d="M129.393 27.1733C122.66 27.1733 119.18 27.1733 118.993 27.0933C118.909 27.0717 118.829 27.0333 118.759 26.9804C118.69 26.9275 118.631 26.8612 118.588 26.7854C118.544 26.7095 118.517 26.6257 118.506 26.5389C118.495 26.4521 118.502 26.364 118.527 26.28C118.57 26.1213 118.67 25.9839 118.807 25.8932C118.945 25.8025 119.11 25.7646 119.273 25.7866C120.367 25.88 143.887 25.7866 152.9 25.7866C153.077 25.7866 153.246 25.8569 153.371 25.9819C153.496 26.1069 153.567 26.2765 153.567 26.4533C153.567 26.6301 153.496 26.7997 153.371 26.9247C153.246 27.0497 153.077 27.12 152.9 27.12L129.393 27.1733Z" fill="#56CCF2"/>
    <path d="M160.887 27.12C160.786 27.1205 160.687 27.0979 160.597 27.054C160.507 27.0101 160.428 26.9459 160.367 26.8666C160.311 26.7989 160.269 26.7207 160.245 26.6367C160.22 26.5526 160.212 26.4644 160.222 26.3773C160.232 26.2903 160.259 26.2061 160.302 26.1298C160.346 26.0535 160.404 25.9867 160.473 25.9333C160.7 25.7466 161.073 25.4533 180.913 25.7866C181.001 25.7866 181.089 25.8043 181.17 25.8388C181.251 25.8733 181.324 25.9238 181.385 25.9873C181.446 26.0508 181.494 26.126 181.525 26.2084C181.556 26.2908 181.57 26.3786 181.567 26.4666C181.569 26.5553 181.552 26.6434 181.518 26.7253C181.485 26.8073 181.434 26.8813 181.37 26.9427C181.306 27.0042 181.23 27.0516 181.147 27.0821C181.064 27.1126 180.975 27.1255 180.887 27.12C173.793 27 162.22 26.88 161.127 27.12C161.048 27.1387 160.965 27.1387 160.887 27.12Z" fill="#231F20"/>
    <path d="M132.66 96.4667H117.527C117.35 96.4667 117.18 96.3964 117.055 96.2714C116.93 96.1464 116.86 95.9768 116.86 95.8C116.86 95.6232 116.93 95.4536 117.055 95.3286C117.18 95.2036 117.35 95.1333 117.527 95.1333H132.66C132.837 95.1333 133.006 95.2036 133.131 95.3286C133.256 95.4536 133.327 95.6232 133.327 95.8C133.327 95.9768 133.256 96.1464 133.131 96.2714C133.006 96.3964 132.837 96.4667 132.66 96.4667Z" fill="#56CCF2"/>
    <path d="M97.9934 106.373H86.9001C86.7233 106.373 86.5537 106.303 86.4287 106.178C86.3036 106.053 86.2334 105.883 86.2334 105.707C86.2334 105.53 86.3036 105.36 86.4287 105.235C86.5537 105.11 86.7233 105.04 86.9001 105.04H97.9934C98.1702 105.04 98.3398 105.11 98.4648 105.235C98.5898 105.36 98.6601 105.53 98.6601 105.707C98.6601 105.883 98.5898 106.053 98.4648 106.178C98.3398 106.303 98.1702 106.373 97.9934 106.373Z" fill="#56CCF2"/>
    <path d="M128.58 106.373H102.207C102.03 106.373 101.86 106.303 101.735 106.178C101.61 106.053 101.54 105.883 101.54 105.707C101.54 105.53 101.61 105.36 101.735 105.235C101.86 105.11 102.03 105.04 102.207 105.04H128.58C128.757 105.04 128.926 105.11 129.051 105.235C129.176 105.36 129.247 105.53 129.247 105.707C129.247 105.883 129.176 106.053 129.051 106.178C128.926 106.303 128.757 106.373 128.58 106.373Z" fill="#231F20"/>
    <path d="M184.967 106.373H133.86C133.683 106.373 133.514 106.303 133.389 106.178C133.264 106.053 133.193 105.883 133.193 105.707C133.193 105.53 133.264 105.36 133.389 105.235C133.514 105.11 133.683 105.04 133.86 105.04H184.967C185.143 105.04 185.313 105.11 185.438 105.235C185.563 105.36 185.633 105.53 185.633 105.707C185.633 105.883 185.563 106.053 185.438 106.178C185.313 106.303 185.143 106.373 184.967 106.373Z" fill="#56CCF2"/>
    <path d="M219.113 131.627C218.936 131.627 218.767 131.556 218.642 131.431C218.517 131.306 218.447 131.137 218.447 130.96V14.36C218.447 14.1832 218.517 14.0136 218.642 13.8886C218.767 13.7636 218.936 13.6934 219.113 13.6934C219.29 13.6934 219.46 13.7636 219.585 13.8886C219.71 14.0136 219.78 14.1832 219.78 14.36V130.96C219.776 131.136 219.705 131.303 219.581 131.428C219.457 131.552 219.289 131.623 219.113 131.627Z" fill="#D1D3D4"/>
    <path d="M260.433 25.3867H228.9C228.724 25.3833 228.557 25.3119 228.432 25.1876C228.308 25.0633 228.237 24.8958 228.233 24.72C228.233 24.5432 228.304 24.3736 228.429 24.2486C228.554 24.1236 228.723 24.0533 228.9 24.0533H260.433C260.61 24.0533 260.78 24.1236 260.905 24.2486C261.03 24.3736 261.1 24.5432 261.1 24.72C261.1 24.8968 261.03 25.0664 260.905 25.1914C260.78 25.3164 260.61 25.3867 260.433 25.3867Z" fill="#56CCF2"/>
    <path d="M260.433 36.5867H228.9C228.724 36.5833 228.557 36.5119 228.432 36.3877C228.308 36.2634 228.237 36.0958 228.233 35.92C228.233 35.7432 228.304 35.5736 228.429 35.4486C228.554 35.3236 228.723 35.2534 228.9 35.2534H260.433C260.61 35.2534 260.78 35.3236 260.905 35.4486C261.03 35.5736 261.1 35.7432 261.1 35.92C261.1 36.0968 261.03 36.2664 260.905 36.3914C260.78 36.5165 260.61 36.5867 260.433 36.5867Z" fill="#56CCF2"/>
    <path d="M249.807 47.7867H228.9C228.724 47.7833 228.557 47.712 228.432 47.5877C228.308 47.4634 228.237 47.2958 228.233 47.12C228.233 46.9432 228.304 46.7737 228.429 46.6486C228.554 46.5236 228.723 46.4534 228.9 46.4534H249.807C249.984 46.4534 250.153 46.5236 250.278 46.6486C250.403 46.7737 250.473 46.9432 250.473 47.12C250.47 47.2958 250.399 47.4634 250.274 47.5877C250.15 47.712 249.982 47.7833 249.807 47.7867Z" fill="#231F20"/>
    <path d="M260.433 58.9866H238.54C238.363 58.9866 238.194 58.9164 238.069 58.7914C237.944 58.6664 237.873 58.4968 237.873 58.32C237.873 58.1432 237.944 57.9736 238.069 57.8486C238.194 57.7236 238.363 57.6533 238.54 57.6533H260.433C260.61 57.6533 260.78 57.7236 260.905 57.8486C261.03 57.9736 261.1 58.1432 261.1 58.32C261.1 58.4075 261.083 58.4942 261.049 58.5751C261.016 58.656 260.967 58.7295 260.905 58.7914C260.843 58.8533 260.769 58.9024 260.688 58.9359C260.607 58.9694 260.521 58.9866 260.433 58.9866Z" fill="#56CCF2"/>
    <path d="M252.06 70.1867H228.9C228.724 70.1833 228.557 70.1119 228.432 69.9876C228.308 69.8633 228.237 69.6957 228.233 69.52C228.233 69.3432 228.304 69.1736 228.429 69.0486C228.554 68.9236 228.723 68.8533 228.9 68.8533H252.06C252.237 68.8533 252.406 68.9236 252.531 69.0486C252.656 69.1736 252.727 69.3432 252.727 69.52C252.723 69.6957 252.652 69.8633 252.528 69.9876C252.403 70.1119 252.236 70.1833 252.06 70.1867Z" fill="#231F20"/>
    <path d="M240.487 81.3867H228.9C228.724 81.3832 228.557 81.3119 228.432 81.1876C228.308 81.0633 228.237 80.8957 228.233 80.72C228.233 80.5432 228.304 80.3736 228.429 80.2486C228.554 80.1236 228.723 80.0533 228.9 80.0533H240.487C240.663 80.0533 240.833 80.1236 240.958 80.2486C241.083 80.3736 241.153 80.5432 241.153 80.72C241.15 80.8957 241.079 81.0633 240.954 81.1876C240.83 81.3119 240.662 81.3832 240.487 81.3867Z" fill="#56CCF2"/>
    <path d="M254.62 92.5867H228.9C228.724 92.5833 228.557 92.5119 228.432 92.3876C228.308 92.2633 228.237 92.0958 228.233 91.92C228.233 91.7432 228.304 91.5736 228.429 91.4486C228.554 91.3236 228.723 91.2534 228.9 91.2534H254.62C254.797 91.2534 254.966 91.3236 255.091 91.4486C255.216 91.5736 255.287 91.7432 255.287 91.92C255.287 92.0968 255.216 92.2664 255.091 92.3914C254.966 92.5164 254.797 92.5867 254.62 92.5867Z" fill="#56CCF2"/>
    <path d="M260.433 103.787H238.54C238.363 103.787 238.194 103.716 238.069 103.591C237.944 103.466 237.873 103.297 237.873 103.12C237.873 102.943 237.944 102.774 238.069 102.649C238.194 102.524 238.363 102.453 238.54 102.453H260.433C260.61 102.453 260.78 102.524 260.905 102.649C261.03 102.774 261.1 102.943 261.1 103.12C261.1 103.208 261.083 103.294 261.049 103.375C261.016 103.456 260.967 103.529 260.905 103.591C260.843 103.653 260.769 103.702 260.688 103.736C260.607 103.769 260.521 103.787 260.433 103.787Z" fill="#231F20"/>
    <path d="M254.62 114.987H228.9C228.724 114.983 228.557 114.912 228.432 114.788C228.308 114.663 228.237 114.496 228.233 114.32C228.233 114.143 228.304 113.974 228.429 113.849C228.554 113.724 228.723 113.653 228.9 113.653H254.62C254.797 113.653 254.966 113.724 255.091 113.849C255.216 113.974 255.287 114.143 255.287 114.32C255.287 114.497 255.216 114.666 255.091 114.791C254.966 114.916 254.797 114.987 254.62 114.987Z" fill="#56CCF2"/>
    <path d="M239.327 126.187H228.873C228.696 126.187 228.527 126.116 228.402 125.991C228.277 125.866 228.207 125.697 228.207 125.52C228.207 125.343 228.277 125.174 228.402 125.049C228.527 124.924 228.696 124.853 228.873 124.853H239.327C239.503 124.853 239.673 124.924 239.798 125.049C239.923 125.174 239.993 125.343 239.993 125.52C239.993 125.697 239.923 125.866 239.798 125.991C239.673 126.116 239.503 126.187 239.327 126.187Z" fill="#231F20"/>
</svg>
