<svg viewBox="0 0 183 38" fill="none" xmlns="http://www.w3.org/2000/svg">
    <g clip-path="url(#clip0)">
        <path d="M2.82812 13.7734H8.21875V15H1.32031V3.625H2.82812V13.7734ZM21.5156 3.625V11.3594C21.5104 12.4323 21.1719 13.3099 20.5 13.9922C19.8333 14.6745 18.9271 15.0573 17.7812 15.1406L17.3828 15.1562C16.138 15.1562 15.1458 14.8203 14.4062 14.1484C13.6667 13.4766 13.2917 12.5521 13.2812 11.375V3.625H14.7656V11.3281C14.7656 12.151 14.9922 12.7917 15.4453 13.25C15.8984 13.7031 16.5443 13.9297 17.3828 13.9297C18.2318 13.9297 18.8802 13.7031 19.3281 13.25C19.7812 12.7969 20.0078 12.1589 20.0078 11.3359V3.625H21.5156ZM29.4922 15H27.9922V3.625H29.4922V15ZM37.3672 13.7734H43.875V15H35.5938V13.875L41.8281 4.85938H35.6953V3.625H43.625V4.72656L37.3672 13.7734ZM61.1406 9.92969C59.8542 9.5599 58.9167 9.10677 58.3281 8.57031C57.7448 8.02865 57.4531 7.36198 57.4531 6.57031C57.4531 5.67448 57.8099 4.9349 58.5234 4.35156C59.2422 3.76302 60.1745 3.46875 61.3203 3.46875C62.1016 3.46875 62.7969 3.61979 63.4062 3.92188C64.0208 4.22396 64.4948 4.64062 64.8281 5.17188C65.1667 5.70312 65.3359 6.28385 65.3359 6.91406H63.8281C63.8281 6.22656 63.6094 5.6875 63.1719 5.29688C62.7344 4.90104 62.1172 4.70312 61.3203 4.70312C60.5807 4.70312 60.0026 4.86719 59.5859 5.19531C59.1745 5.51823 58.9688 5.96875 58.9688 6.54688C58.9688 7.01042 59.1641 7.40365 59.5547 7.72656C59.9505 8.04427 60.6198 8.33594 61.5625 8.60156C62.5104 8.86719 63.25 9.16146 63.7812 9.48438C64.3177 9.80208 64.7135 10.1745 64.9688 10.6016C65.2292 11.0286 65.3594 11.5312 65.3594 12.1094C65.3594 13.0312 65 13.7708 64.2812 14.3281C63.5625 14.8802 62.6016 15.1562 61.3984 15.1562C60.6172 15.1562 59.888 15.0078 59.2109 14.7109C58.5339 14.4089 58.0104 13.9974 57.6406 13.4766C57.276 12.9557 57.0938 12.3646 57.0938 11.7031H58.6016C58.6016 12.3906 58.8542 12.9349 59.3594 13.3359C59.8698 13.7318 60.5495 13.9297 61.3984 13.9297C62.1901 13.9297 62.7969 13.7682 63.2188 13.4453C63.6406 13.1224 63.8516 12.6823 63.8516 12.125C63.8516 11.5677 63.6562 11.138 63.2656 10.8359C62.875 10.5286 62.1667 10.2266 61.1406 9.92969ZM77.5703 12.0312H72.8047L71.7344 15H70.1875L74.5312 3.625H75.8438L80.1953 15H78.6562L77.5703 12.0312ZM73.2578 10.7969H77.125L75.1875 5.47656L73.2578 10.7969ZM94.4688 15H92.9609L87.2344 6.23438V15H85.7266V3.625H87.2344L92.9766 12.4297V3.625H94.4688V15ZM101.133 15V3.625H104.344C105.333 3.625 106.208 3.84375 106.969 4.28125C107.729 4.71875 108.315 5.34115 108.727 6.14844C109.143 6.95573 109.354 7.88281 109.359 8.92969V9.65625C109.359 10.7292 109.151 11.6693 108.734 12.4766C108.323 13.2839 107.732 13.9036 106.961 14.3359C106.195 14.7682 105.302 14.9896 104.281 15H101.133ZM102.633 4.85938V13.7734H104.211C105.367 13.7734 106.266 13.4141 106.906 12.6953C107.552 11.9766 107.875 10.9531 107.875 9.625V8.96094C107.875 7.66927 107.57 6.66667 106.961 5.95312C106.357 5.23438 105.497 4.86979 104.383 4.85938H102.633ZM124.383 9.67969C124.383 10.7943 124.195 11.7682 123.82 12.6016C123.445 13.4297 122.914 14.0625 122.227 14.5C121.539 14.9375 120.737 15.1562 119.82 15.1562C118.924 15.1562 118.13 14.9375 117.438 14.5C116.745 14.0573 116.206 13.4297 115.82 12.6172C115.44 11.7995 115.245 10.8542 115.234 9.78125V8.96094C115.234 7.86719 115.424 6.90104 115.805 6.0625C116.185 5.22396 116.721 4.58333 117.414 4.14062C118.112 3.69271 118.909 3.46875 119.805 3.46875C120.716 3.46875 121.518 3.6901 122.211 4.13281C122.909 4.57031 123.445 5.20833 123.82 6.04688C124.195 6.88021 124.383 7.85156 124.383 8.96094V9.67969ZM122.891 8.94531C122.891 7.59635 122.62 6.5625 122.078 5.84375C121.536 5.11979 120.779 4.75781 119.805 4.75781C118.857 4.75781 118.109 5.11979 117.562 5.84375C117.021 6.5625 116.742 7.5625 116.727 8.84375V9.67969C116.727 10.987 117 12.0156 117.547 12.7656C118.099 13.5104 118.857 13.8828 119.82 13.8828C120.789 13.8828 121.539 13.5312 122.07 12.8281C122.602 12.1198 122.875 11.1068 122.891 9.78906V8.94531ZM134.227 13.0078L137.477 3.625H139.117L134.898 15H133.57L129.359 3.625H130.992L134.227 13.0078ZM150.336 12.0312H145.57L144.5 15H142.953L147.297 3.625H148.609L152.961 15H151.422L150.336 12.0312ZM146.023 10.7969H149.891L147.953 5.47656L146.023 10.7969ZM160 13.7734H165.391V15H158.492V3.625H160V13.7734Z" fill="white"/>
        <path d="M1.89062 36V28.3125H0.492188V27.5469H1.89062V26.5234C1.89062 25.6589 2.10938 24.9948 2.54688 24.5312C2.98958 24.0677 3.60417 23.8359 4.39062 23.8359C4.74479 23.8359 5.07552 23.8802 5.38281 23.9688L5.3125 24.75C5.05208 24.6875 4.76823 24.6562 4.46094 24.6562C3.94531 24.6562 3.54427 24.8177 3.25781 25.1406C2.97135 25.4583 2.82812 25.9115 2.82812 26.5V27.5469H4.84375V28.3125H2.82812V36H1.89062ZM14.3531 34.9297C13.7906 35.7474 12.8922 36.1562 11.6578 36.1562C10.7568 36.1562 10.0719 35.8958 9.60313 35.375C9.13438 34.849 8.89479 34.0729 8.88438 33.0469V27.5469H9.81406V32.9297C9.81406 34.5391 10.4651 35.3438 11.7672 35.3438C13.1214 35.3438 13.9781 34.7839 14.3375 33.6641V27.5469H15.275V36H14.3688L14.3531 34.9297ZM21.1594 36H20.2219V24H21.1594V36ZM27.1531 36H26.2156V24H27.1531V36ZM37.1625 33.8516C37.1625 33.388 36.975 33.0156 36.6 32.7344C36.2302 32.4531 35.6703 32.2344 34.9203 32.0781C34.1703 31.9167 33.587 31.7344 33.1703 31.5312C32.7589 31.3229 32.4516 31.0703 32.2484 30.7734C32.0505 30.4766 31.9516 30.1172 31.9516 29.6953C31.9516 29.0286 32.2302 28.4792 32.7875 28.0469C33.3448 27.6094 34.0583 27.3906 34.9281 27.3906C35.8708 27.3906 36.626 27.625 37.1938 28.0938C37.7667 28.5573 38.0531 29.1641 38.0531 29.9141H37.1156C37.1156 29.4193 36.9073 29.0078 36.4906 28.6797C36.0792 28.3516 35.5583 28.1875 34.9281 28.1875C34.3135 28.1875 33.8188 28.3255 33.4438 28.6016C33.074 28.8724 32.8891 29.2266 32.8891 29.6641C32.8891 30.0859 33.0427 30.4141 33.35 30.6484C33.6625 30.8776 34.2276 31.0885 35.0453 31.2812C35.8682 31.474 36.4828 31.6797 36.8891 31.8984C37.3005 32.1172 37.6052 32.3802 37.8031 32.6875C38.001 32.9948 38.1 33.3672 38.1 33.8047C38.1 34.5182 37.8109 35.0885 37.2328 35.5156C36.6599 35.9427 35.9099 36.1562 34.9828 36.1562C33.9984 36.1562 33.199 35.9193 32.5844 35.4453C31.975 34.9661 31.6703 34.362 31.6703 33.6328H32.6078C32.6443 34.1797 32.8734 34.6068 33.2953 34.9141C33.7224 35.2161 34.2849 35.3672 34.9828 35.3672C35.6339 35.3672 36.1599 35.224 36.5609 34.9375C36.962 34.651 37.1625 34.2891 37.1625 33.8516ZM44.0625 25.3828V27.5469H45.8125V28.3125H44.0625V33.9453C44.0625 34.4141 44.1458 34.763 44.3125 34.9922C44.4844 35.2214 44.7682 35.3359 45.1641 35.3359C45.3203 35.3359 45.5729 35.3099 45.9219 35.2578L45.9609 36.0234C45.7161 36.112 45.3828 36.1562 44.9609 36.1562C44.3203 36.1562 43.8542 35.9714 43.5625 35.6016C43.2708 35.2266 43.125 34.6771 43.125 33.9531V28.3125H41.5703V27.5469H43.125V25.3828H44.0625ZM55.4859 36C55.3922 35.7344 55.3323 35.3411 55.3063 34.8203C54.9781 35.2474 54.5589 35.5781 54.0484 35.8125C53.5432 36.0417 53.0068 36.1562 52.4391 36.1562C51.6266 36.1562 50.9677 35.9297 50.4625 35.4766C49.9625 35.0234 49.7125 34.4505 49.7125 33.7578C49.7125 32.9349 50.0536 32.2839 50.7359 31.8047C51.4234 31.3255 52.3792 31.0859 53.6031 31.0859H55.2984V30.125C55.2984 29.5208 55.1109 29.0469 54.7359 28.7031C54.3661 28.3542 53.8245 28.1797 53.1109 28.1797C52.4599 28.1797 51.9208 28.3464 51.4938 28.6797C51.0667 29.013 50.8531 29.4141 50.8531 29.8828L49.9156 29.875C49.9156 29.2031 50.2281 28.6224 50.8531 28.1328C51.4781 27.638 52.2464 27.3906 53.1578 27.3906C54.1005 27.3906 54.8427 27.6276 55.3844 28.1016C55.9313 28.5703 56.2125 29.2266 56.2281 30.0703V34.0703C56.2281 34.888 56.3141 35.5 56.4859 35.9062V36H55.4859ZM52.5484 35.3281C53.1734 35.3281 53.7307 35.1771 54.2203 34.875C54.7151 34.5729 55.0745 34.1693 55.2984 33.6641V31.8047H53.6266C52.6943 31.8151 51.9651 31.987 51.4391 32.3203C50.913 32.6484 50.65 33.1016 50.65 33.6797C50.65 34.1536 50.8245 34.5469 51.1734 34.8594C51.5276 35.1719 51.9859 35.3281 52.5484 35.3281ZM64.2531 35.3672C64.9042 35.3672 65.4484 35.1849 65.8859 34.8203C66.3286 34.4505 66.5682 33.974 66.6047 33.3906H67.5031C67.4771 33.9062 67.3156 34.3776 67.0187 34.8047C66.7219 35.2266 66.326 35.5573 65.8312 35.7969C65.3417 36.0365 64.8156 36.1562 64.2531 36.1562C63.1437 36.1562 62.2635 35.7708 61.6125 35C60.9667 34.2292 60.6437 33.1927 60.6437 31.8906V31.6094C60.6437 30.776 60.7896 30.0391 61.0812 29.3984C61.3729 28.7578 61.7896 28.263 62.3312 27.9141C62.8781 27.5651 63.5161 27.3906 64.2453 27.3906C65.1724 27.3906 65.9354 27.6667 66.5344 28.2188C67.1385 28.7708 67.4615 29.4974 67.5031 30.3984H66.6047C66.563 29.737 66.3234 29.2031 65.8859 28.7969C65.4536 28.3906 64.9068 28.1875 64.2453 28.1875C63.4016 28.1875 62.7453 28.4922 62.2766 29.1016C61.813 29.7109 61.5812 30.5651 61.5812 31.6641V31.9375C61.5812 33.0156 61.813 33.8568 62.2766 34.4609C62.7453 35.0651 63.4042 35.3672 64.2531 35.3672ZM73.7859 31.7422L72.7156 32.7734V36H71.7781V24H72.7156V31.6797L73.5984 30.7266L76.8328 27.5469H78.0125L74.4266 31.1094L78.325 36H77.2078L73.7859 31.7422ZM87.9375 31.6953C87.9375 30.3828 88.2292 29.3385 88.8125 28.5625C89.401 27.7812 90.1979 27.3906 91.2031 27.3906C92.3438 27.3906 93.2135 27.8411 93.8125 28.7422V24H94.7422V36H93.8672L93.8281 34.875C93.2292 35.7292 92.349 36.1562 91.1875 36.1562C90.2135 36.1562 89.4271 35.7656 88.8281 34.9844C88.2344 34.1979 87.9375 33.138 87.9375 31.8047V31.6953ZM88.8828 31.8594C88.8828 32.9375 89.099 33.7891 89.5312 34.4141C89.9635 35.0339 90.5729 35.3438 91.3594 35.3438C92.5104 35.3438 93.3281 34.8359 93.8125 33.8203V29.8516C93.3281 28.7526 92.5156 28.2031 91.375 28.2031C90.5885 28.2031 89.9766 28.513 89.5391 29.1328C89.1016 29.7474 88.8828 30.6562 88.8828 31.8594ZM102.877 36.1562C102.158 36.1562 101.507 35.9792 100.923 35.625C100.345 35.2708 99.8948 34.7786 99.5719 34.1484C99.249 33.513 99.0875 32.8021 99.0875 32.0156V31.6797C99.0875 30.8672 99.2438 30.1354 99.5563 29.4844C99.874 28.8333 100.314 28.3229 100.877 27.9531C101.439 27.5781 102.048 27.3906 102.705 27.3906C103.731 27.3906 104.543 27.7422 105.142 28.4453C105.746 29.1432 106.048 30.099 106.048 31.3125V31.8359H100.017V32.0156C100.017 32.974 100.291 33.7734 100.838 34.4141C101.39 35.0495 102.082 35.3672 102.916 35.3672C103.416 35.3672 103.856 35.276 104.236 35.0938C104.621 34.9115 104.97 34.6198 105.283 34.2188L105.869 34.6641C105.181 35.6589 104.184 36.1562 102.877 36.1562ZM102.705 28.1875C102.002 28.1875 101.408 28.4453 100.923 28.9609C100.444 29.4766 100.153 30.1693 100.048 31.0391H105.119V30.9375C105.093 30.125 104.861 29.4635 104.423 28.9531C103.986 28.4427 103.413 28.1875 102.705 28.1875ZM112.792 34.7109L115.363 27.5469H116.323L113.167 36H112.409L109.238 27.5469H110.198L112.792 34.7109ZM123.427 36.1562C122.708 36.1562 122.057 35.9792 121.473 35.625C120.895 35.2708 120.445 34.7786 120.122 34.1484C119.799 33.513 119.638 32.8021 119.638 32.0156V31.6797C119.638 30.8672 119.794 30.1354 120.106 29.4844C120.424 28.8333 120.864 28.3229 121.427 27.9531C121.989 27.5781 122.598 27.3906 123.255 27.3906C124.281 27.3906 125.093 27.7422 125.692 28.4453C126.296 29.1432 126.598 30.099 126.598 31.3125V31.8359H120.567V32.0156C120.567 32.974 120.841 33.7734 121.388 34.4141C121.94 35.0495 122.632 35.3672 123.466 35.3672C123.966 35.3672 124.406 35.276 124.786 35.0938C125.171 34.9115 125.52 34.6198 125.833 34.2188L126.419 34.6641C125.731 35.6589 124.734 36.1562 123.427 36.1562ZM123.255 28.1875C122.552 28.1875 121.958 28.4453 121.473 28.9609C120.994 29.4766 120.703 30.1693 120.598 31.0391H125.669V30.9375C125.643 30.125 125.411 29.4635 124.973 28.9531C124.536 28.4427 123.963 28.1875 123.255 28.1875ZM131.866 36H130.928V24H131.866V36ZM136.297 31.6484C136.297 30.8359 136.453 30.1042 136.766 29.4531C137.083 28.8021 137.529 28.2969 138.102 27.9375C138.68 27.5729 139.333 27.3906 140.062 27.3906C141.188 27.3906 142.099 27.7865 142.797 28.5781C143.495 29.3646 143.844 30.4089 143.844 31.7109V31.9062C143.844 32.724 143.685 33.4609 143.367 34.1172C143.055 34.7682 142.612 35.2708 142.039 35.625C141.466 35.9792 140.812 36.1562 140.078 36.1562C138.958 36.1562 138.047 35.763 137.344 34.9766C136.646 34.1849 136.297 33.138 136.297 31.8359V31.6484ZM137.234 31.9062C137.234 32.9167 137.495 33.7474 138.016 34.3984C138.542 35.0443 139.229 35.3672 140.078 35.3672C140.922 35.3672 141.604 35.0443 142.125 34.3984C142.651 33.7474 142.914 32.8906 142.914 31.8281V31.6484C142.914 31.0026 142.794 30.4115 142.555 29.875C142.315 29.3385 141.979 28.9245 141.547 28.6328C141.115 28.3359 140.62 28.1875 140.062 28.1875C139.229 28.1875 138.549 28.5156 138.023 29.1719C137.497 29.8229 137.234 30.6771 137.234 31.7344V31.9062ZM154.978 31.8594C154.978 33.1771 154.686 34.224 154.103 35C153.52 35.7708 152.739 36.1562 151.759 36.1562C150.603 36.1562 149.718 35.75 149.103 34.9375V39.25H148.173V27.5469H149.041L149.087 28.7422C149.697 27.8411 150.58 27.3906 151.736 27.3906C152.746 27.3906 153.538 27.7734 154.111 28.5391C154.689 29.3047 154.978 30.3672 154.978 31.7266V31.8594ZM154.041 31.6953C154.041 30.6172 153.819 29.7656 153.377 29.1406C152.934 28.5156 152.317 28.2031 151.525 28.2031C150.952 28.2031 150.46 28.3411 150.048 28.6172C149.637 28.8932 149.322 29.2943 149.103 29.8203V33.875C149.327 34.3594 149.647 34.7292 150.064 34.9844C150.481 35.2396 150.973 35.3672 151.541 35.3672C152.327 35.3672 152.939 35.0547 153.377 34.4297C153.819 33.7995 154.041 32.888 154.041 31.6953ZM162.73 36.1562C162.011 36.1562 161.36 35.9792 160.777 35.625C160.198 35.2708 159.748 34.7786 159.425 34.1484C159.102 33.513 158.941 32.8021 158.941 32.0156V31.6797C158.941 30.8672 159.097 30.1354 159.409 29.4844C159.727 28.8333 160.167 28.3229 160.73 27.9531C161.292 27.5781 161.902 27.3906 162.558 27.3906C163.584 27.3906 164.396 27.7422 164.995 28.4453C165.599 29.1432 165.902 30.099 165.902 31.3125V31.8359H159.87V32.0156C159.87 32.974 160.144 33.7734 160.691 34.4141C161.243 35.0495 161.935 35.3672 162.769 35.3672C163.269 35.3672 163.709 35.276 164.089 35.0938C164.474 34.9115 164.823 34.6198 165.136 34.2188L165.722 34.6641C165.034 35.6589 164.037 36.1562 162.73 36.1562ZM162.558 28.1875C161.855 28.1875 161.261 28.4453 160.777 28.9609C160.297 29.4766 160.006 30.1693 159.902 31.0391H164.972V30.9375C164.946 30.125 164.714 29.4635 164.277 28.9531C163.839 28.4427 163.266 28.1875 162.558 28.1875ZM174.028 28.3438C173.83 28.3073 173.619 28.2891 173.395 28.2891C172.812 28.2891 172.317 28.4531 171.911 28.7812C171.51 29.1042 171.223 29.5755 171.052 30.1953V36H170.122V27.5469H171.036L171.052 28.8906C171.546 27.8906 172.341 27.3906 173.434 27.3906C173.695 27.3906 173.901 27.4245 174.052 27.4922L174.028 28.3438Z" fill="white" fill-opacity="0.5"/>
    </g>
    <defs>
        <clipPath id="clip0">
            <rect width="183" height="38" fill="white"/>
        </clipPath>
    </defs>
</svg>
